<svg xmlns="http://www.w3.org/2000/svg" viewBox="0 0 32 32" width="32" height="32">
  <circle cx="16" cy="16" r="16" fill="#25D366"/>
  <path d="M16 7.2c-4.86 0-8.8 3.94-8.8 8.8 0 1.55.41 3.07 1.18 4.4L7.2 24.8l4.5-1.18a8.78 8.78 0 0 0 4.3 1.1c4.86 0 8.8-3.94 8.8-8.8S20.86 7.2 16 7.2zm5.18 12.42c-.22.62-1.28 1.18-1.78 1.25-.46.06-1.04.09-1.68-.1-.39-.13-.88-.3-1.52-.57-2.67-1.15-4.42-3.84-4.55-4.02-.13-.18-1.09-1.45-1.09-2.77s.69-1.96.94-2.23c.25-.27.55-.34.74-.34s.37 0 .53.01c.17.01.4-.06.62.47.22.55.76 1.9.83 2.04.07.14.11.3.02.47-.09.18-.13.29-.27.45-.13.16-.28.36-.4.49-.13.13-.27.27-.12.54.15.27.66 1.09 1.42 1.77.97.86 1.79 1.13 2.06 1.27.27.13.42.11.58-.07.16-.18.66-.77.84-1.04.18-.27.36-.22.6-.13.25.09 1.55.73 1.82.86.27.13.45.2.51.31.06.11.06.66-.16 1.28z" fill="#fff"/>
</svg>
