<svg xmlns="http://www.w3.org/2000/svg" viewBox="0 0 32 32" width="32" height="32">
  <rect width="32" height="32" rx="4" fill="#fff"/>
  <path fill="#00832D" d="M18.5 16 22 19.2V12.8z"/>
  <path fill="#0066DA" d="M5 11v10a1 1 0 0 0 1 1h12v-5l-4.5-3.2H8V11z"/>
  <path fill="#E94235" d="M18 10H6a1 1 0 0 0-1 1v1.8l3 .2h5v3l5-.2z"/>
  <path fill="#2684FC" d="M18 10v5.8l-4.5-.6V13H8v7.2l5-.2V22h5a1 1 0 0 0 1-1V11a1 1 0 0 0-1-1z"/>
  <path fill="#FFBA00" d="M26 11.4 22 12.8v6.4l4 1.4a1 1 0 0 0 1-.9v-8.4a1 1 0 0 0-1-.9z"/>
</svg>
