<svg xmlns="http://www.w3.org/2000/svg" viewBox="0 0 32 32" width="32" height="32">
  <rect width="32" height="32" rx="6" fill="#5865F2"/>
  <path fill="#fff" d="M23.1 9.2a15.2 15.2 0 0 0-3.8-1.2.06.06 0 0 0-.06.03c-.17.3-.36.69-.49 1a14 14 0 0 0-4.2 0 9.7 9.7 0 0 0-.5-1 .06.06 0 0 0-.06-.03 15.2 15.2 0 0 0-3.8 1.2.05.05 0 0 0-.03.02c-2.4 3.6-3.06 7.1-2.74 10.55 0 .02.02.04.04.05a15.3 15.3 0 0 0 4.6 2.33.06.06 0 0 0 .07-.02c.36-.5.68-1.02.95-1.57a.06.06 0 0 0-.03-.08 10 10 0 0 1-1.43-.68.06.06 0 0 1-.01-.1l.28-.22a.06.06 0 0 1 .06 0c3 1.37 6.24 1.37 9.22 0a.06.06 0 0 1 .06 0l.28.22a.06.06 0 0 1-.01.1c-.45.27-.93.5-1.43.68a.06.06 0 0 0-.03.08c.28.55.6 1.06.95 1.57.02.02.04.03.07.02a15.2 15.2 0 0 0 4.6-2.33.06.06 0 0 0 .04-.05c.39-4-.65-7.47-2.74-10.55a.05.05 0 0 0-.03-.02zM12.84 17.6c-.91 0-1.66-.84-1.66-1.86 0-1.03.73-1.87 1.66-1.87.94 0 1.68.85 1.66 1.87 0 1.02-.73 1.86-1.66 1.86zm6.16 0c-.91 0-1.66-.84-1.66-1.86 0-1.03.73-1.87 1.66-1.87.94 0 1.68.85 1.66 1.87 0 1.02-.72 1.86-1.66 1.86z"/>
</svg>
