<svg width="1000" height="1000" viewBox="0 0 1000 1000" fill="none" xmlns="http://www.w3.org/2000/svg">
<g filter="url(#filter0_iig_3324_1523)">
<path d="M270.548 382.714C175.869 479.647 86.1402 654.573 127.915 829.517C145.272 881.371 165.202 911.976 222.935 941.975C253.337 957.772 327.5 950.5 375.544 921.664L445.394 890.456C490.742 873.851 509.572 876.412 538.5 889.192C577.029 910.413 587.5 931.5 649.207 964.222C729.487 1006.79 793.127 956.041 817.514 889.192C874.808 742.915 814.514 422.978 650.331 310.479C516.054 226.594 403.003 247.226 270.548 382.714Z" fill="#F7D145"/>
</g>
<g filter="url(#filter1_iig_3324_1523)">
<circle cx="493" cy="145" r="110" fill="#F7D145"/>
</g>
<g opacity="0.4" filter="url(#filter2_f_3324_1523)">
<path d="M450.376 270.172C464.042 264.005 502.076 255.372 544.876 270.172C598.376 288.672 415.876 288.172 450.376 270.172Z" fill="#B23C05"/>
</g>
<g opacity="0.4" filter="url(#filter3_f_3324_1523)">
<path d="M533.5 245.499C524.956 248.602 489.943 257.335 463.186 249.888C429.74 240.578 555.068 236.442 533.5 245.499Z" fill="#B23C05"/>
</g>
<path fill-rule="evenodd" clip-rule="evenodd" d="M438.262 594.258C437.572 594.294 437.284 594.346 436.924 594.496C436.672 594.602 436.363 594.734 436.237 594.79C436.111 594.847 435.543 595.166 434.976 595.5C434.409 595.834 433.851 596.184 433.738 596.278C433.551 596.433 433.445 596.45 432.608 596.457C432.032 596.461 431.493 596.512 431.172 596.591C430.889 596.661 430.395 596.849 430.072 597.009C429.75 597.17 429.142 597.56 428.72 597.877C428.299 598.195 427.812 598.591 427.638 598.759C427.442 598.947 427.249 599.063 427.132 599.063C427.028 599.063 426.958 599.089 426.978 599.12C426.997 599.151 426.931 599.182 426.831 599.188C426.73 599.194 426.666 599.168 426.689 599.131C426.712 599.093 426.676 599.063 426.608 599.063C426.539 599.063 426.501 599.091 426.523 599.125C426.544 599.16 426.488 599.186 426.397 599.183C426.25 599.177 426.234 599.212 426.253 599.493C426.266 599.681 426.197 600.036 426.084 600.372C425.979 600.681 425.856 601.072 425.811 601.241C425.766 601.409 425.677 602.036 425.613 602.634C425.509 603.611 425.51 603.804 425.616 604.516C425.681 604.952 425.821 605.614 425.929 605.988C426.037 606.361 426.272 606.976 426.452 607.354C426.633 607.732 427.039 608.385 427.356 608.806C427.673 609.226 428.04 609.673 428.173 609.799L428.415 610.028L434.58 610.086C437.971 610.119 455.833 610.135 474.273 610.125C492.713 610.114 507.8 610.128 507.8 610.156C507.8 610.184 507.671 610.249 507.514 610.3C507.356 610.352 506.914 610.539 506.532 610.716C506.149 610.894 505.622 611.185 505.36 611.363C505.098 611.541 504.644 611.892 504.351 612.144C504.057 612.397 503.556 612.918 503.236 613.302C502.916 613.686 502.557 614.215 502.438 614.477C502.32 614.738 502.168 615.271 502.1 615.661C501.994 616.272 501.99 616.466 502.07 617.059C502.121 617.437 502.246 618.038 502.35 618.396C502.452 618.754 502.701 619.389 502.904 619.81C503.105 620.23 503.49 620.882 503.759 621.259C504.027 621.636 504.573 622.276 504.973 622.682C505.372 623.088 505.977 623.624 506.317 623.874C506.657 624.124 507.16 624.437 507.434 624.57C507.709 624.702 508.196 624.896 508.518 625.001C508.84 625.106 509.386 625.246 509.731 625.312C510.077 625.378 510.876 625.464 511.506 625.501C512.137 625.539 513.632 625.59 514.831 625.616C516.029 625.64 518.952 625.628 521.326 625.588C525.144 625.524 525.74 625.497 526.484 625.36C526.946 625.274 527.611 625.117 527.962 625.012C528.313 624.907 528.901 624.686 529.269 624.524C529.638 624.361 530.204 624.045 530.526 623.822C530.849 623.599 531.447 623.066 531.856 622.639C532.265 622.211 532.775 621.605 532.991 621.294C533.206 620.982 533.522 620.452 533.691 620.115C533.86 619.779 534.053 619.34 534.119 619.14C534.184 618.94 534.275 618.54 534.32 618.25C534.379 617.869 534.379 617.551 534.317 617.098C534.269 616.753 534.149 616.191 534.05 615.848C533.951 615.506 533.799 615.062 533.714 614.862C533.628 614.663 533.387 614.233 533.177 613.907C532.967 613.582 532.527 613.051 532.199 612.73C531.871 612.408 531.328 611.948 530.992 611.709C530.656 611.47 530.089 611.127 529.731 610.948C529.373 610.77 528.815 610.525 528.489 610.404C528.164 610.284 527.897 610.161 527.897 610.132C527.897 610.103 531.129 610.068 535.079 610.054L542.26 610.029L542.472 609.81C542.614 609.663 542.652 609.579 542.588 609.555C542.535 609.536 542.492 609.49 542.492 609.454C542.492 609.417 542.594 609.237 542.719 609.053C542.843 608.868 543.067 608.463 543.217 608.151C543.367 607.839 543.597 607.241 543.729 606.82C543.915 606.226 543.968 605.92 543.966 605.445C543.966 605.074 543.898 604.562 543.794 604.146C543.7 603.768 543.472 603.136 543.288 602.744C543.103 602.351 542.8 601.815 542.614 601.555C542.427 601.293 541.987 600.807 541.633 600.473C541.2 600.064 540.754 599.735 540.259 599.462C539.855 599.238 539.402 599.022 539.251 598.98C539.01 598.914 538.977 598.875 538.977 598.665V598.425L538.74 598.649C538.61 598.773 538.437 599.005 538.354 599.165C538.272 599.326 538.073 599.824 537.912 600.273C537.751 600.722 537.183 602.173 536.649 603.497C536.115 604.821 535.57 606.111 535.436 606.363C535.265 606.687 535.143 606.828 535.022 606.846C534.86 606.869 534.85 606.843 534.844 606.387C534.841 606.121 534.83 605.285 534.82 604.529C534.808 603.553 534.764 602.979 534.669 602.553C534.596 602.222 534.422 601.62 534.284 601.215C534.145 600.81 533.886 600.189 533.708 599.835C533.53 599.481 533.193 598.919 532.959 598.585C532.725 598.251 532.135 597.553 531.648 597.034C531.161 596.514 530.603 595.984 530.407 595.856C530.212 595.727 529.905 595.47 529.726 595.285L529.401 594.949L529.259 595.13L529.117 595.31L528.717 595.133C528.497 595.036 527.819 594.794 527.209 594.595L526.101 594.232L482.62 594.222C458.706 594.216 438.745 594.232 438.261 594.258L438.262 594.258ZM428.022 626.13C424.176 626.16 420.935 626.197 420.819 626.213C420.703 626.229 420.523 626.323 420.418 626.421C420.313 626.52 420.228 626.62 420.228 626.644C420.228 626.669 420.329 626.734 420.453 626.789C420.638 626.87 420.685 626.945 420.717 627.208C420.761 627.564 421.429 632.951 422.254 639.602C422.781 643.847 423.33 648.283 423.474 649.46C423.619 650.637 423.961 653.422 424.236 655.65C424.51 657.877 424.89 661.006 425.082 662.603C425.274 664.2 425.602 666.848 425.811 668.487C426.161 671.233 427.595 682.714 427.906 685.261C428.098 686.836 428.46 689.726 428.71 691.68C428.96 693.634 429.339 696.694 429.553 698.481C429.767 700.267 430.127 703.189 430.354 704.976C430.581 706.763 431.144 711.181 431.604 714.795C432.065 718.41 432.929 725.287 433.523 730.079C434.63 738.996 436.351 752.715 437.037 758.085C437.459 761.385 438.216 767.385 438.721 771.42C439.226 775.455 439.711 779.2 439.798 779.742C439.886 780.285 440.058 781.089 440.182 781.53C440.306 781.971 440.529 782.628 440.679 782.989C440.828 783.351 441.141 783.99 441.375 784.41C441.608 784.831 441.932 785.37 442.094 785.607C442.256 785.845 442.388 786.072 442.388 786.112C442.388 786.151 442.027 786.206 441.584 786.232C441.142 786.259 438.451 786.35 435.605 786.433C432.758 786.517 429.381 786.62 428.098 786.665C426.816 786.709 424.787 786.779 423.59 786.821C422.392 786.863 420.122 786.948 418.546 787.012C416.971 787.076 413.927 787.213 411.784 787.318C409.64 787.423 406.804 787.577 405.479 787.661C404.155 787.745 402.264 787.884 401.276 787.968C400.289 788.052 398.724 788.191 397.799 788.276C396.875 788.36 395.19 788.532 394.055 788.657C392.92 788.782 391.284 788.986 390.419 789.111C389.554 789.235 388.19 789.458 387.388 789.606C386.585 789.754 385.517 789.993 385.014 790.139C384.51 790.284 383.838 790.512 383.52 790.645C383.202 790.778 382.804 791.006 382.634 791.151C382.456 791.303 382.325 791.483 382.325 791.575C382.325 791.665 382.473 791.877 382.661 792.057C382.845 792.233 383.223 792.485 383.5 792.616C383.778 792.747 384.409 792.977 384.903 793.127C385.398 793.277 386.387 793.517 387.101 793.66C387.816 793.803 389.242 794.04 390.272 794.187C391.303 794.334 392.953 794.541 393.94 794.648C394.928 794.754 396.475 794.909 397.379 794.993C398.283 795.076 400.398 795.246 402.079 795.372C403.76 795.498 406.15 795.671 407.39 795.757C408.629 795.842 410.572 795.963 411.707 796.025C413.323 796.114 416.638 796.276 418.776 796.37C419.722 796.411 422.198 796.497 424.278 796.561C426.358 796.624 429.935 796.728 432.225 796.791C434.515 796.854 438.556 796.956 441.204 797.019C443.852 797.082 448.253 797.167 450.985 797.209C464.754 797.423 469.444 797.457 480.252 797.42C486.641 797.398 494.774 797.327 498.325 797.261C501.876 797.196 506.329 797.105 508.221 797.06C510.112 797.015 512.794 796.946 514.181 796.905C520.242 796.725 528.721 796.428 531.604 796.295C532.486 796.253 534 796.185 534.966 796.142C535.933 796.099 537.292 796.03 537.985 795.988C540.376 795.845 544.42 795.596 544.747 795.571C545.042 795.549 546.194 795.463 547.307 795.381C548.421 795.298 550.158 795.161 551.166 795.075C552.175 794.99 553.688 794.85 554.529 794.766C555.369 794.681 556.865 794.508 557.853 794.383C558.841 794.257 560.262 794.049 561.012 793.92C561.761 793.792 562.776 793.588 563.266 793.468C563.756 793.348 564.518 793.124 564.959 792.971C565.401 792.819 565.951 792.589 566.182 792.462C566.414 792.334 566.697 792.142 566.813 792.033C566.928 791.924 567.023 791.774 567.023 791.698C567.023 791.621 566.902 791.426 566.755 791.263C566.604 791.095 566.245 790.848 565.928 790.694C565.621 790.544 564.972 790.301 564.485 790.153C563.998 790.006 563.061 789.781 562.403 789.653C561.744 789.526 560.253 789.285 559.089 789.118C557.925 788.952 556.217 788.729 555.293 788.624C554.368 788.519 553.061 788.38 552.389 788.314C551.717 788.248 550.375 788.127 549.409 788.046C548.442 787.964 546.654 787.827 545.435 787.741C544.216 787.657 542.669 787.553 541.996 787.511C541.324 787.47 539.777 787.384 538.558 787.32C533.938 787.079 530.701 786.921 527.516 786.782C526.107 786.721 524.165 786.637 523.198 786.594C520.158 786.46 518.068 786.338 518.019 786.292C517.986 786.261 518.09 786.066 518.252 785.859C518.413 785.652 518.805 784.968 519.123 784.337C519.447 783.696 519.838 782.771 520.012 782.236C520.182 781.71 520.391 780.937 520.477 780.516C520.563 780.096 520.754 778.824 520.904 777.689C521.054 776.554 521.277 774.904 521.401 774.021C521.525 773.138 522.004 769.734 522.468 766.456C522.931 763.178 523.552 758.742 523.849 756.598C524.146 754.455 524.713 750.466 525.108 747.734C525.503 745.002 525.981 741.58 526.17 740.13C526.359 738.681 526.688 736.033 526.902 734.246C527.13 732.338 527.866 726.62 527.939 726.187C527.967 726.018 527.959 725.979 527.906 726.034C527.867 726.075 527.761 726.486 527.67 726.949C527.579 727.411 527.389 728.254 527.248 728.822C527.107 729.389 526.954 729.953 526.908 730.073C526.862 730.194 526.756 730.389 526.673 730.506C526.589 730.624 526.209 731.469 525.828 732.387C525.448 733.305 524.98 734.347 524.79 734.705C524.6 735.063 524.217 735.698 523.939 736.117C523.662 736.537 523.272 737.044 523.074 737.244C522.876 737.444 522.673 737.609 522.623 737.609C522.568 737.609 522.549 737.675 522.576 737.781C522.603 737.887 522.563 738.026 522.474 738.144L522.329 738.335L522.276 738.005L522.223 737.676L521.966 737.925C521.798 738.089 521.71 738.246 521.71 738.384C521.71 738.499 521.672 738.69 521.626 738.808C521.58 738.926 521.53 739.298 521.513 739.635C521.496 739.971 521.448 740.401 521.406 740.59C521.364 740.778 521.278 741.381 521.214 741.927C521.151 742.473 521.065 743.161 521.022 743.455C520.979 743.75 520.913 744.282 520.874 744.64C520.835 744.997 520.731 745.822 520.642 746.474C520.529 747.307 520.246 749.431 520.067 750.791C520.001 751.296 519.881 752.172 519.8 752.74C519.719 753.308 519.582 754.287 519.496 754.918C519.409 755.548 519.286 756.408 519.221 756.828C519.157 757.248 519.073 757.833 519.036 758.127C518.965 758.677 518.635 761.14 518.575 761.566C518.533 761.86 518.466 762.359 518.426 762.674C518.385 762.989 518.282 763.763 518.196 764.393C518.11 765.024 517.973 766.072 517.893 766.724C517.812 767.376 517.692 768.355 517.625 768.902C517.559 769.448 517.433 770.308 517.345 770.812C517.258 771.317 517.089 772.109 516.972 772.574C516.853 773.038 516.629 773.76 516.473 774.178C516.317 774.596 515.939 775.437 515.633 776.047C515.327 776.656 514.756 777.618 514.363 778.184C513.837 778.941 513.366 779.498 512.579 780.29C511.99 780.882 511.182 781.611 510.783 781.91C510.384 782.209 509.747 782.635 509.369 782.855C508.991 783.075 508.464 783.374 508.198 783.519C507.932 783.663 507.404 783.915 507.026 784.08C506.648 784.244 505.994 784.498 505.574 784.644C505.153 784.791 504.477 784.981 504.07 785.068C503.665 785.154 502.8 785.289 502.148 785.368C501.496 785.447 500.431 785.551 499.779 785.6C499.127 785.648 497.597 785.775 496.378 785.882C495.16 785.988 493.766 786.103 493.284 786.137C492.801 786.17 486.911 786.201 480.197 786.204C469.972 786.209 467.868 786.192 467.244 786.1C466.834 786.04 465.657 785.903 464.628 785.795C463.598 785.688 462.377 785.562 461.915 785.515C461.452 785.469 460.714 785.38 460.272 785.318C459.83 785.256 459.142 785.14 458.744 785.062C458.345 784.983 457.708 784.846 457.33 784.757C456.952 784.669 456.229 784.464 455.725 784.303C455.221 784.141 454.375 783.821 453.846 783.592C453.317 783.363 452.543 782.976 452.127 782.732C451.71 782.489 451.025 782.055 450.605 781.77C450.185 781.485 449.478 780.96 449.034 780.605C448.59 780.249 447.958 779.672 447.63 779.322C447.3 778.972 446.777 778.35 446.467 777.94C446.155 777.529 445.718 776.892 445.494 776.524C445.27 776.156 444.922 775.529 444.722 775.13C444.522 774.731 444.211 774.026 444.033 773.563C443.854 773.101 443.636 772.464 443.548 772.149C443.46 771.834 443.333 771.317 443.266 771.003C443.199 770.688 443.074 769.897 442.99 769.245C442.875 768.359 442.594 766.015 442.436 764.622C442.369 764.033 442.28 763.328 442.24 763.055C442.199 762.782 442.129 762.215 442.084 761.794C442.039 761.374 441.987 760.945 441.969 760.839C441.95 760.734 441.865 760.08 441.778 759.387C441.691 758.694 441.551 757.594 441.468 756.942C441.384 756.29 441.298 755.62 441.276 755.452C441.255 755.284 441.185 754.717 441.121 754.191C441.058 753.665 440.938 752.72 440.855 752.09C440.773 751.459 440.654 750.514 440.592 749.988C440.531 749.462 440.446 748.844 440.406 748.613C440.365 748.381 440.296 747.814 440.252 747.352C440.194 746.759 439.997 745.215 439.831 744.066C439.771 743.646 439.685 742.941 439.64 742.499C439.596 742.058 439.528 741.525 439.49 741.315C439.452 741.105 439.382 740.555 439.336 740.092C439.29 739.63 439.222 739.063 439.183 738.831C439.145 738.6 439.077 738.05 439.032 737.609C438.987 737.167 438.916 736.6 438.875 736.348C438.833 736.096 438.746 735.408 438.683 734.82C438.619 734.231 438.497 733.182 438.411 732.489C438.327 731.796 438.188 730.643 438.103 729.929C438.018 729.214 437.882 728.08 437.8 727.407C437.718 726.735 437.618 725.909 437.578 725.573C437.537 725.237 437.469 724.687 437.426 724.351C437.384 724.014 437.298 723.275 437.235 722.708C437.173 722.14 437.089 721.504 437.047 721.294C437.007 721.084 436.916 720.396 436.846 719.766C436.775 719.135 436.652 718.104 436.572 717.473C436.492 716.843 436.395 716.069 436.357 715.754C436.318 715.439 436.25 714.889 436.206 714.531C436.162 714.173 436.056 713.4 435.972 712.812C435.887 712.223 435.784 711.432 435.744 711.054C435.703 710.676 435.617 709.971 435.553 709.488C435.421 708.501 435.181 706.57 435.126 706.049C435.087 705.691 435.018 705.159 434.972 704.864C434.925 704.57 434.821 703.797 434.74 703.145C434.659 702.493 434.526 701.41 434.443 700.738C434.361 700.066 434.222 698.948 434.134 698.254C433.931 696.636 433.655 694.387 433.601 693.899C433.561 693.541 433.479 692.905 433.418 692.485C433.357 692.065 433.269 691.377 433.224 690.957C433.178 690.536 433.107 689.986 433.068 689.734C433.029 689.482 432.96 688.915 432.915 688.473C432.87 688.032 432.802 687.482 432.764 687.251C432.725 687.019 432.655 686.452 432.608 685.99C432.562 685.527 432.493 684.977 432.456 684.767C432.418 684.557 432.35 684.024 432.305 683.583C432.26 683.141 432.191 682.591 432.152 682.36C432.113 682.128 432.044 681.561 431.997 681.099C431.951 680.637 431.882 680.087 431.844 679.876C431.805 679.666 431.737 679.116 431.691 678.654C431.645 678.191 431.576 677.641 431.539 677.431C431.501 677.221 431.432 676.688 431.386 676.247C431.339 675.805 431.27 675.289 431.233 675.1C431.196 674.912 431.128 674.378 431.082 673.916C431.036 673.454 430.968 672.92 430.931 672.732C430.894 672.543 430.825 671.975 430.777 671.471C430.729 670.966 430.658 670.399 430.62 670.21C430.582 670.021 430.497 669.385 430.432 668.796C430.367 668.208 430.248 667.21 430.166 666.58C430.085 665.95 429.968 665.033 429.906 664.545C429.844 664.056 429.757 663.403 429.71 663.093C429.663 662.784 429.574 662.117 429.511 661.613C429.447 661.109 429.342 660.128 429.277 659.435C429.181 658.42 429.174 658.043 429.242 657.503C429.289 657.133 429.397 656.531 429.485 656.165C429.571 655.799 429.798 655.105 429.988 654.621C430.178 654.138 430.475 653.485 430.647 653.171C430.819 652.857 431.16 652.334 431.406 652.008C431.704 651.613 432.061 651.26 432.479 650.949C432.823 650.692 433.483 650.294 433.946 650.063C434.408 649.833 434.889 649.543 435.014 649.42L435.242 649.195H434.984H434.727L434.765 648.717C434.792 648.369 434.882 648.084 435.09 647.67C435.247 647.358 435.541 646.836 435.742 646.512C435.942 646.188 436.294 645.67 436.522 645.362C436.751 645.054 437.248 644.44 437.628 643.999C438.008 643.557 438.642 642.919 439.036 642.58C439.43 642.241 440.035 641.753 440.381 641.497C440.728 641.241 441.295 640.861 441.642 640.651C441.99 640.443 442.549 640.134 442.886 639.967C443.222 639.799 443.978 639.471 444.567 639.238C445.155 639.005 446.139 638.659 446.755 638.469C447.369 638.279 448.297 638.014 448.818 637.882C449.338 637.75 450.451 637.509 451.291 637.347C452.132 637.185 453.696 636.932 454.768 636.785C455.84 636.639 457.233 636.463 457.863 636.394C458.494 636.325 459.594 636.238 460.309 636.201C461.023 636.163 461.831 636.096 462.104 636.051C462.378 636.007 463.684 635.938 465.008 635.898C466.332 635.859 467.622 635.789 467.874 635.744C468.129 635.698 470.231 635.632 472.611 635.594C475.171 635.554 477.06 635.492 477.311 635.441C477.572 635.389 479.634 635.331 482.775 635.291C486.002 635.249 487.97 635.194 488.239 635.138C488.513 635.081 490.623 635.028 494.314 634.985C497.633 634.947 500.142 634.887 500.389 634.84C500.641 634.792 503.121 634.738 506.579 634.707C512.726 634.65 512.965 634.661 513.292 635.01L513.45 635.178L513.224 635.652C513.069 635.977 512.998 636.242 513 636.491C513 636.691 513.063 637.087 513.137 637.369C513.212 637.651 513.291 637.9 513.312 637.922C513.334 637.943 513.459 637.85 513.59 637.714C513.756 637.54 513.935 637.169 514.186 636.473C514.384 635.927 514.642 635.285 514.761 635.049C514.88 634.812 515.019 634.451 515.07 634.246C515.12 634.041 515.452 633.101 515.807 632.155C516.162 631.209 516.624 629.989 516.834 629.443C517.044 628.896 517.348 628.071 517.51 627.609L517.804 626.768L517.549 626.51C517.36 626.319 517.217 626.247 516.999 626.232C516.837 626.222 515.775 626.189 514.64 626.161C513.506 626.132 495.125 626.102 473.796 626.094C452.467 626.086 431.869 626.105 428.023 626.135L428.022 626.13ZM527.904 626.626C527.691 626.865 527.516 627.1 527.516 627.148C527.516 627.195 527.203 628.057 526.821 629.062C526.439 630.067 525.944 631.354 525.721 631.922C525.498 632.489 525.264 633.13 525.199 633.348C525.089 633.72 525.091 633.75 525.216 633.864C525.29 633.931 525.373 633.985 525.401 633.985C525.429 633.985 525.452 633.933 525.452 633.87C525.452 633.808 525.513 633.756 525.586 633.756C525.659 633.756 526.236 633.743 526.866 633.727C527.497 633.71 528.666 633.641 529.464 633.572C530.263 633.503 531.656 633.36 532.559 633.254C533.462 633.149 535.084 632.943 536.161 632.797C537.239 632.652 538.524 632.431 539.017 632.307C539.51 632.182 539.99 632.03 540.083 631.969C540.176 631.908 540.396 631.819 540.57 631.772C540.801 631.71 540.895 631.64 540.919 631.517C540.963 631.289 541.247 629.307 541.348 628.521C541.43 627.891 541.497 627.266 541.498 627.132C541.499 626.966 541.559 626.842 541.689 626.741C541.866 626.601 541.869 626.585 541.746 626.478C541.673 626.414 541.54 626.324 541.447 626.277C541.327 626.215 539.459 626.19 534.786 626.19H528.291L527.903 626.626H527.904ZM577.54 784.566C577.293 784.627 576.882 784.789 576.626 784.926C576.37 785.062 575.963 785.356 575.723 785.578C575.482 785.8 575.159 786.179 575.004 786.419C574.85 786.659 574.661 786.944 574.586 787.052C574.51 787.161 574.404 787.401 574.352 787.587C574.299 787.773 574.226 787.964 574.189 788.012C574.146 788.069 573.969 788.086 573.687 788.061C573.332 788.03 573.173 788.057 572.83 788.211C572.599 788.315 572.254 788.538 572.064 788.707C571.874 788.877 571.615 789.199 571.491 789.425C571.289 789.789 571.264 789.906 571.264 790.484C571.264 791.053 571.29 791.177 571.472 791.487C571.586 791.682 571.851 791.996 572.061 792.184C572.27 792.373 572.56 792.583 572.704 792.651C572.849 792.72 573.288 792.81 573.682 792.852C574.074 792.894 575.859 792.951 577.646 792.979C580.008 793.016 581.229 793.003 582.116 792.932C582.825 792.875 583.535 792.773 583.809 792.689C584.081 792.605 584.472 792.4 584.733 792.204C584.981 792.017 585.273 791.734 585.381 791.575C585.489 791.416 585.601 791.171 585.63 791.031C585.672 790.829 585.631 790.671 585.433 790.269C585.295 789.99 585.022 789.601 584.824 789.403C584.536 789.115 584.358 789.011 583.931 788.885C583.637 788.798 583.292 788.726 583.165 788.726C583.037 788.726 582.86 788.665 582.77 788.592C582.675 788.515 582.587 788.33 582.56 788.153C582.535 787.984 582.395 787.606 582.249 787.312C582.103 787.018 581.867 786.617 581.724 786.423C581.581 786.228 581.242 785.86 580.97 785.606C580.688 785.343 580.27 785.049 579.996 784.92C579.731 784.796 579.361 784.66 579.171 784.615C578.983 784.571 578.639 784.517 578.407 784.494C578.155 784.469 577.808 784.498 577.538 784.565L577.54 784.566Z" fill="#F3D6BD" stroke="#F3D6BD" stroke-width="0.0611328" stroke-linejoin="round"/>
<path fill-rule="evenodd" clip-rule="evenodd" d="M436.695 648.883C436.317 648.917 435.684 649.018 435.288 649.108C434.806 649.216 434.323 649.397 433.822 649.654C433.411 649.865 432.841 650.211 432.554 650.423C432.268 650.635 431.885 650.951 431.703 651.125C431.521 651.299 431.176 651.701 430.936 652.018C430.696 652.334 430.359 652.85 430.188 653.164C430.016 653.478 429.72 654.13 429.529 654.614C429.339 655.096 429.112 655.792 429.025 656.158C428.939 656.524 428.83 657.125 428.783 657.495C428.715 658.036 428.722 658.413 428.818 659.428C428.882 660.121 428.988 661.101 429.051 661.606C429.115 662.11 429.204 662.776 429.251 663.086C429.297 663.395 429.385 664.049 429.447 664.538C429.509 665.027 429.625 665.942 429.707 666.573C429.788 667.203 429.908 668.2 429.973 668.789C430.038 669.377 430.123 670.014 430.161 670.202C430.199 670.391 430.27 670.959 430.318 671.463C430.366 671.968 430.435 672.535 430.472 672.724C430.509 672.913 430.577 673.446 430.622 673.909C430.668 674.371 430.737 674.904 430.774 675.093C430.811 675.282 430.88 675.798 430.927 676.239C430.973 676.681 431.042 677.214 431.079 677.424C431.117 677.634 431.186 678.184 431.232 678.646C431.277 679.109 431.346 679.659 431.384 679.869C431.423 680.079 431.491 680.629 431.538 681.092C431.585 681.554 431.654 682.121 431.693 682.353C431.732 682.584 431.801 683.134 431.846 683.575C431.891 684.017 431.959 684.55 431.996 684.76C432.034 684.97 432.103 685.52 432.149 685.982C432.196 686.445 432.265 687.012 432.304 687.243C432.343 687.475 432.411 688.024 432.456 688.466C432.501 688.908 432.57 689.475 432.609 689.727C432.649 689.979 432.719 690.529 432.764 690.949C432.81 691.37 432.897 692.057 432.959 692.478C433.02 692.898 433.102 693.534 433.142 693.891C433.196 694.38 433.472 696.629 433.675 698.247C433.762 698.94 433.901 700.058 433.984 700.731C434.067 701.403 434.2 702.486 434.281 703.138C434.362 703.79 434.467 704.563 434.513 704.857C434.559 705.151 434.628 705.684 434.666 706.042C434.722 706.563 434.962 708.494 435.094 709.48C435.158 709.963 435.244 710.669 435.285 711.047C435.325 711.425 435.428 712.216 435.512 712.804C435.597 713.393 435.702 714.166 435.747 714.524C435.791 714.881 435.859 715.432 435.897 715.746C435.936 716.061 436.033 716.835 436.113 717.466C436.193 718.096 436.316 719.128 436.387 719.758C436.457 720.389 436.547 721.076 436.588 721.287C436.629 721.497 436.714 722.132 436.776 722.7C436.839 723.268 436.925 724.007 436.967 724.343C437.01 724.679 437.078 725.23 437.119 725.566C437.159 725.902 437.259 726.727 437.341 727.4C437.423 728.072 437.559 729.207 437.644 729.922C437.728 730.636 437.867 731.788 437.952 732.481C438.037 733.175 438.159 734.224 438.224 734.812C438.288 735.401 438.374 736.088 438.415 736.34C438.457 736.593 438.528 737.16 438.573 737.601C438.618 738.043 438.686 738.592 438.724 738.824C438.762 739.056 438.831 739.623 438.877 740.085C438.923 740.547 438.992 741.097 439.031 741.308C439.069 741.518 439.137 742.05 439.181 742.492C439.225 742.934 439.311 743.638 439.372 744.058C439.538 745.208 439.735 746.751 439.792 747.344C439.837 747.807 439.906 748.374 439.947 748.605C439.987 748.837 440.071 749.455 440.133 749.981C440.195 750.506 440.314 751.452 440.396 752.082C440.479 752.713 440.598 753.658 440.662 754.184C440.725 754.709 440.796 755.276 440.817 755.444C440.839 755.613 440.925 756.283 441.009 756.935C441.093 757.586 441.232 758.687 441.318 759.38C441.405 760.073 441.491 760.726 441.509 760.832C441.528 760.937 441.58 761.367 441.625 761.787C441.67 762.207 441.74 762.775 441.781 763.048C441.821 763.321 441.91 764.026 441.976 764.614C442.135 766.007 442.416 768.351 442.531 769.238C442.616 769.889 442.74 770.68 442.807 770.995C442.874 771.31 443.001 771.827 443.089 772.141C443.177 772.456 443.395 773.093 443.573 773.556C443.752 774.018 444.062 774.723 444.263 775.122C444.463 775.521 444.811 776.149 445.035 776.517C445.258 776.885 445.706 777.536 446.029 777.962C446.353 778.388 446.981 779.115 447.426 779.576C447.872 780.037 448.597 780.705 449.038 781.058C449.48 781.413 450.184 781.936 450.605 782.221C451.025 782.506 451.709 782.94 452.126 783.183C452.542 783.427 453.317 783.815 453.845 784.043C454.374 784.272 455.22 784.592 455.724 784.754C456.229 784.916 456.951 785.121 457.329 785.209C457.707 785.297 458.344 785.434 458.743 785.513C459.142 785.591 459.829 785.707 460.271 785.769C460.713 785.831 461.452 785.92 461.914 785.967C463.739 786.15 466.802 786.485 467.243 786.55C467.867 786.642 469.971 786.659 480.196 786.654C486.911 786.651 492.799 786.621 493.283 786.587C493.766 786.553 495.159 786.438 496.378 786.332C497.597 786.225 499.126 786.098 499.778 786.05C500.43 786.002 501.495 785.897 502.147 785.818C502.799 785.74 503.664 785.604 504.07 785.518C504.475 785.432 505.152 785.241 505.573 785.095C505.993 784.948 506.647 784.694 507.026 784.53C507.404 784.366 507.931 784.113 508.197 783.969C508.463 783.825 508.99 783.526 509.368 783.305C509.747 783.084 510.383 782.659 510.782 782.36C511.181 782.062 512.093 781.23 512.807 780.512C513.831 779.483 514.258 778.988 514.821 778.176C515.213 777.609 515.785 776.647 516.091 776.037C516.396 775.428 516.774 774.587 516.931 774.169C517.086 773.751 517.311 773.029 517.43 772.564C517.548 772.099 517.716 771.307 517.803 770.803C517.89 770.298 518.016 769.439 518.083 768.892C518.149 768.346 518.27 767.366 518.35 766.714C518.431 766.062 518.567 765.014 518.654 764.384C518.74 763.753 518.843 762.979 518.884 762.664C518.924 762.349 518.991 761.85 519.033 761.556C519.093 761.131 519.423 758.667 519.494 758.117C519.531 757.823 519.614 757.239 519.679 756.818C519.743 756.398 519.867 755.538 519.954 754.908C520.04 754.278 520.177 753.298 520.258 752.73C520.339 752.162 520.459 751.286 520.525 750.782C520.704 749.421 520.987 747.298 521.1 746.464C521.188 745.812 521.292 744.988 521.331 744.63C521.37 744.272 521.437 743.74 521.48 743.446C521.522 743.151 521.609 742.464 521.672 741.917C521.736 741.371 521.822 740.769 521.864 740.58C521.906 740.391 521.956 739.921 521.976 739.537C522.004 738.974 521.989 738.819 521.895 738.741C521.799 738.662 521.721 738.677 521.457 738.823C521.281 738.921 520.947 739.149 520.715 739.329C520.484 739.509 519.866 740.005 519.34 740.429C518.814 740.854 518.002 741.457 517.533 741.768C517.065 742.08 516.498 742.422 516.273 742.526C516.047 742.631 515.758 742.717 515.63 742.718C515.46 742.719 515.324 742.797 515.127 743.005C514.979 743.163 514.74 743.444 514.598 743.631C514.448 743.825 514.333 744.068 514.326 744.204C514.319 744.333 514.24 744.935 514.15 745.541C514.06 746.148 513.834 747.558 513.647 748.674C513.461 749.79 513.133 751.822 512.919 753.188C512.706 754.554 512.377 756.628 512.189 757.797C512.001 758.966 511.759 760.34 511.651 760.851C511.543 761.361 511.34 762.158 511.199 762.622C511.059 763.086 510.75 763.947 510.514 764.536C510.278 765.124 509.877 766.001 509.624 766.484C509.37 766.966 508.947 767.689 508.685 768.088C508.422 768.488 508.037 769.027 507.829 769.286C507.62 769.545 507.296 769.886 507.109 770.043C506.922 770.2 506.567 770.461 506.321 770.621C506.075 770.78 505.594 771.02 505.253 771.151C504.792 771.328 504.494 771.393 504.096 771.402C503.633 771.412 503.485 771.378 503.026 771.161C502.732 771.022 502.38 770.822 502.242 770.717C502.104 770.612 501.857 770.344 501.693 770.123C501.53 769.902 501.293 769.478 501.167 769.182C501.041 768.885 500.874 768.372 500.796 768.041C500.678 767.537 500.655 767.125 500.659 765.491C500.662 763.781 500.804 760.933 501.031 758.04C501.238 755.396 501.73 748.33 501.793 747.098L501.829 746.378L501.504 746.08C501.243 745.839 501.07 745.774 500.619 745.672C500.311 745.603 499.539 745.458 498.904 745.351C498.269 745.243 497.269 745.055 496.68 744.933C496.092 744.81 495.11 744.573 494.499 744.405C493.887 744.237 492.787 743.894 492.053 743.643C491.32 743.391 490.238 742.988 489.65 742.746C489.062 742.503 487.876 741.954 487.014 741.525C486.152 741.095 484.906 740.417 484.244 740.019C483.583 739.62 482.672 739.034 482.219 738.715C481.767 738.398 481.002 737.828 480.518 737.451C480.035 737.073 479.297 736.462 478.878 736.092C478.46 735.722 477.794 735.059 477.399 734.618C477.004 734.177 476.344 733.399 475.934 732.89C475.524 732.381 474.93 731.573 474.614 731.095C474.299 730.616 473.781 729.765 473.463 729.203C473.145 728.642 472.725 727.816 472.529 727.369C472.333 726.922 471.99 726.006 471.766 725.333C471.543 724.661 471.273 723.715 471.166 723.232C471.059 722.749 470.896 721.803 470.804 721.131C470.682 720.237 470.637 719.517 470.636 718.456C470.635 717.638 470.69 716.454 470.763 715.743C470.833 715.05 470.907 714.397 470.927 714.291C470.946 714.186 471.053 713.206 471.163 712.114C471.289 710.885 471.368 709.631 471.373 708.828C471.378 707.744 471.351 707.396 471.205 706.726C471.11 706.285 470.903 705.597 470.746 705.198C470.59 704.799 470.315 704.223 470.137 703.919C469.959 703.615 469.604 703.087 469.347 702.747C469.091 702.407 468.5 701.732 468.034 701.248C467.569 700.763 466.774 699.999 466.268 699.548C465.762 699.098 464.352 697.871 463.133 696.822C461.914 695.773 460.728 694.773 460.497 694.601C460.265 694.429 459.901 694.199 459.685 694.092C459.47 693.985 459.074 693.862 458.806 693.82C458.538 693.778 457.872 693.706 457.325 693.659C456.779 693.612 455.845 693.492 455.251 693.392C454.656 693.291 453.729 693.065 453.191 692.89C452.653 692.715 451.816 692.37 451.33 692.123C450.845 691.876 450.177 691.471 449.844 691.221C449.513 690.972 449.069 690.602 448.859 690.399C448.65 690.196 448.272 689.76 448.02 689.429C447.768 689.098 447.377 688.515 447.151 688.133C446.925 687.751 446.603 687.087 446.436 686.659C446.269 686.23 446.044 685.524 445.938 685.089C445.825 684.628 445.725 683.948 445.699 683.458C445.667 682.865 445.692 682.348 445.783 681.701C445.854 681.196 446.014 680.251 446.141 679.599C446.267 678.947 446.39 678.085 446.414 677.684C446.443 677.194 446.425 676.856 446.362 676.663C446.308 676.501 446.046 676.14 445.759 675.835C445.399 675.452 444.907 675.069 444.067 674.518C443.415 674.09 442.673 673.573 442.418 673.368C442.162 673.164 441.773 672.771 441.554 672.496C441.334 672.221 441.003 671.687 440.818 671.309C440.633 670.931 440.425 670.38 440.357 670.086C440.273 669.724 440.242 669.317 440.261 668.825C440.286 668.173 440.319 668.035 440.577 667.49C440.736 667.156 440.984 666.738 441.129 666.562C441.274 666.385 441.602 666.1 441.858 665.93C442.125 665.752 442.627 665.522 443.034 665.392C443.424 665.267 444.221 665.094 444.805 665.008C445.388 664.921 446.363 664.819 446.972 664.78C447.581 664.741 449.061 664.687 450.258 664.662C451.456 664.637 452.677 664.58 452.971 664.535C453.265 664.491 453.764 664.373 454.079 664.274C454.394 664.175 454.962 663.91 455.34 663.686C455.718 663.463 456.406 663.004 456.868 662.667C457.331 662.33 458.124 661.774 458.632 661.431C459.139 661.088 459.732 660.62 459.95 660.39C460.168 660.16 460.345 659.944 460.345 659.889C460.345 659.835 459.976 659.41 459.525 658.965C459.034 658.482 458.413 657.965 457.984 657.684C457.589 657.425 456.987 657.105 456.647 656.974C456.307 656.843 455.719 656.669 455.341 656.589C454.963 656.509 454.285 656.422 453.835 656.396C453.329 656.367 452.745 656.385 452.306 656.444C451.916 656.497 451.149 656.676 450.603 656.841C449.794 657.086 449.514 657.138 449.098 657.121C448.701 657.104 448.555 657.128 448.448 657.229C448.148 657.51 447.399 658.129 447.357 658.129C447.317 658.129 447.254 658 447.217 657.842C447.18 657.685 447.089 657.298 447.014 656.982C446.939 656.668 446.758 656.11 446.613 655.744C446.467 655.378 446.134 654.703 445.872 654.245C445.611 653.787 445.159 653.107 444.868 652.733C444.578 652.359 444.098 651.812 443.803 651.516C443.508 651.221 443.041 650.819 442.766 650.623C442.491 650.427 441.906 650.083 441.467 649.858C441.027 649.634 440.427 649.371 440.133 649.274C439.839 649.178 439.358 649.047 439.063 648.983C438.769 648.92 438.27 648.857 437.955 648.844C437.641 648.831 437.073 648.849 436.694 648.883H436.695Z" fill="#CE7532" stroke="#CE7532" stroke-width="0.0611328" stroke-linejoin="round"/>
<path fill-rule="evenodd" clip-rule="evenodd" d="M518.408 649.56C517.793 649.932 517.14 650.351 516.958 650.493C516.775 650.634 516.388 650.957 516.098 651.211C515.806 651.465 515.312 651.965 514.999 652.323C514.686 652.68 514.068 653.48 513.625 654.102C513.139 654.783 512.813 655.314 512.805 655.439C512.796 655.554 512.674 656.017 512.533 656.468C512.281 657.277 512.273 657.29 512.044 657.29C511.916 657.29 511.343 657.391 510.77 657.514C510.197 657.637 509.486 657.809 509.191 657.897C508.896 657.985 508.35 658.179 507.98 658.328C507.608 658.477 506.927 658.809 506.465 659.065C506.002 659.321 505.515 659.611 505.381 659.71C505.247 659.808 505.085 659.889 505.02 659.889C504.956 659.889 504.454 659.597 503.905 659.24C503.357 658.883 502.573 658.389 502.165 658.142C501.756 657.895 501.146 657.555 500.81 657.387C500.473 657.218 499.79 656.919 499.292 656.723C498.794 656.526 497.934 656.25 497.382 656.108C496.829 655.968 495.999 655.796 495.537 655.728C495.075 655.66 494.094 655.583 493.359 655.558C492.325 655.523 491.787 655.543 490.99 655.645C490.422 655.717 489.577 655.875 489.109 655.994C488.642 656.114 487.817 656.375 487.275 656.574C486.733 656.774 485.878 657.146 485.374 657.401C484.869 657.657 484.101 658.101 483.666 658.389C483.231 658.677 482.571 659.167 482.199 659.478C481.828 659.79 480.929 660.663 480.201 661.419L478.878 662.792L478.611 662.719C478.464 662.679 477.932 662.592 477.429 662.527C476.927 662.462 476.201 662.409 475.816 662.409C475.43 662.409 474.692 662.481 474.176 662.569C473.659 662.656 472.995 662.789 472.701 662.864L472.166 663L471.128 662.05C470.557 661.528 469.787 660.896 469.416 660.646C469.044 660.396 468.451 660.054 468.097 659.884C467.743 659.715 467.142 659.475 466.763 659.351C466.384 659.228 465.645 659.067 465.12 658.995C464.3 658.881 464.054 658.876 463.346 658.956C462.894 659.006 462.112 659.138 461.608 659.249C461.103 659.36 460.519 659.448 460.308 659.446C460.098 659.444 459.884 659.478 459.832 659.52C459.761 659.579 459.758 659.633 459.821 659.752C459.887 659.874 459.872 659.948 459.754 660.106C459.672 660.216 459.282 660.527 458.887 660.796C458.492 661.066 457.653 661.655 457.023 662.104C456.392 662.554 455.601 663.081 455.265 663.275C454.929 663.469 454.447 663.699 454.195 663.785C453.943 663.871 453.462 663.99 453.125 664.049C452.76 664.112 451.622 664.175 450.298 664.203C449.079 664.23 447.583 664.283 446.974 664.323C446.365 664.363 445.389 664.465 444.806 664.551C444.223 664.637 443.427 664.81 443.035 664.935C442.633 665.064 442.126 665.295 441.868 665.469C441.616 665.637 441.196 666.003 440.935 666.283C440.613 666.627 440.357 667.003 440.146 667.444C439.86 668.04 439.831 668.158 439.805 668.825C439.786 669.32 439.817 669.726 439.902 670.089C439.97 670.384 440.177 670.934 440.362 671.312C440.547 671.69 440.924 672.281 441.201 672.625C441.477 672.969 441.97 673.465 442.295 673.727C442.62 673.989 443.419 674.553 444.07 674.979C444.722 675.406 445.371 675.887 445.513 676.05C445.655 676.212 445.822 676.467 445.885 676.618C445.972 676.825 445.99 677.072 445.958 677.655C445.935 678.075 445.812 678.951 445.686 679.603C445.559 680.255 445.397 681.2 445.327 681.705C445.236 682.352 445.212 682.869 445.244 683.462C445.27 683.952 445.37 684.632 445.482 685.093C445.588 685.528 445.813 686.234 445.98 686.663C446.148 687.091 446.47 687.755 446.696 688.137C446.922 688.519 447.325 689.119 447.592 689.471C447.859 689.822 448.308 690.338 448.589 690.616C448.871 690.894 449.405 691.351 449.776 691.63C450.147 691.908 450.847 692.339 451.333 692.586C451.819 692.832 452.656 693.177 453.194 693.353C453.732 693.528 454.659 693.753 455.254 693.854C455.848 693.955 456.782 694.075 457.328 694.121C457.875 694.168 458.541 694.241 458.809 694.283C459.077 694.325 459.472 694.447 459.688 694.555C459.903 694.663 460.269 694.892 460.5 695.064C460.731 695.236 461.917 696.236 463.136 697.284C464.355 698.334 465.771 699.565 466.283 700.022C466.795 700.478 467.495 701.151 467.839 701.518C468.182 701.884 468.665 702.451 468.911 702.777C469.157 703.103 469.504 703.619 469.682 703.923C469.86 704.228 470.134 704.803 470.291 705.203C470.447 705.601 470.654 706.289 470.75 706.731C470.895 707.4 470.923 707.749 470.917 708.832C470.913 709.635 470.833 710.889 470.708 712.118C470.596 713.211 470.49 714.191 470.471 714.296C470.452 714.402 470.379 715.055 470.307 715.748C470.235 716.459 470.18 717.642 470.181 718.461C470.181 719.522 470.227 720.241 470.349 721.135C470.44 721.808 470.603 722.754 470.71 723.237C470.817 723.72 471.088 724.666 471.311 725.338C471.534 726.011 471.877 726.927 472.073 727.374C472.269 727.821 472.689 728.646 473.007 729.208C473.325 729.77 473.839 730.615 474.15 731.086C474.461 731.558 474.991 732.29 475.329 732.713C475.666 733.136 476.296 733.885 476.73 734.377C477.164 734.87 477.825 735.565 478.198 735.922C478.573 736.279 479.205 736.844 479.604 737.178C480.003 737.512 480.777 738.118 481.324 738.525C481.87 738.932 482.661 739.487 483.081 739.759C483.501 740.031 484.308 740.523 484.872 740.851C485.437 741.18 486.589 741.784 487.432 742.194C488.275 742.604 489.532 743.162 490.226 743.435C490.919 743.707 492.02 744.104 492.671 744.315C493.323 744.527 494.32 744.823 494.887 744.972C495.455 745.121 496.349 745.33 496.874 745.436C497.4 745.543 498.339 745.717 498.963 745.822C499.586 745.928 500.323 746.067 500.601 746.131C500.879 746.195 501.169 746.282 501.245 746.322C501.321 746.363 501.383 746.453 501.383 746.524C501.383 746.613 501.48 746.556 501.708 746.333L502.034 746.013L502.055 744.807C502.067 744.144 502.11 743.189 502.15 742.685C502.3 740.809 503.383 726.117 503.717 721.441C503.821 719.97 503.974 717.838 504.057 716.703C504.139 715.568 504.242 714.09 504.287 713.417C504.331 712.745 504.401 711.765 504.443 711.239C504.485 710.714 504.589 709.321 504.673 708.145C504.758 706.968 504.88 705.352 504.943 704.553C505.006 703.755 505.092 702.602 505.133 701.993C505.173 701.384 505.256 700.266 505.317 699.51C505.377 698.753 505.464 697.601 505.509 696.95C505.554 696.298 505.625 695.318 505.666 694.772C505.707 694.225 505.792 693.056 505.855 692.174C505.919 691.291 506.006 690.105 506.05 689.537C506.093 688.97 506.198 687.801 506.282 686.939C506.366 686.077 506.502 684.891 506.584 684.303C506.665 683.714 506.805 682.872 506.894 682.431C506.983 681.989 507.171 681.243 507.313 680.772C507.456 680.302 507.712 679.562 507.884 679.129C508.056 678.697 508.401 677.952 508.65 677.475C508.9 676.998 509.358 676.224 509.668 675.756C509.978 675.287 510.507 674.587 510.844 674.2C511.181 673.812 511.675 673.304 511.941 673.07C512.208 672.837 512.726 672.433 513.093 672.173C513.459 671.913 514.078 671.519 514.468 671.296C514.857 671.073 515.609 670.72 516.138 670.511C516.667 670.303 517.495 670.031 517.979 669.906C518.463 669.781 519.333 669.624 519.914 669.557C520.588 669.479 521.207 669.452 521.627 669.483C521.988 669.509 522.577 669.583 522.934 669.646C523.291 669.71 523.858 669.859 524.195 669.977C524.531 670.096 524.941 670.264 525.106 670.351C525.271 670.438 525.504 670.601 525.622 670.715C525.791 670.877 525.837 670.991 525.837 671.238C525.837 671.412 525.787 671.913 525.726 672.351C525.664 672.788 525.439 674.282 525.225 675.669C524.927 677.608 524.334 681.485 523.929 684.151C523.061 689.859 522.492 693.532 521.94 696.989C521.731 698.292 521.475 699.908 521.371 700.58C521.266 701.253 521.025 702.8 520.834 704.019C520.643 705.238 520.278 707.576 520.025 709.215C519.77 710.854 519.291 713.829 518.96 715.825C518.628 717.821 518.045 721.466 517.663 723.925C517.28 726.384 516.867 729.015 516.746 729.771C516.623 730.528 516.403 731.937 516.255 732.904C516.108 733.863 514.925 741.152 514.643 742.836L514.529 743.521L514.711 743.703L514.892 743.885L515.145 743.534C515.35 743.248 515.44 743.182 515.632 743.181C515.761 743.181 516.052 743.095 516.277 742.99C516.503 742.885 517.07 742.543 517.538 742.231C518.006 741.92 518.819 741.317 519.344 740.892C519.87 740.467 520.488 739.971 520.72 739.789C520.951 739.607 521.318 739.366 521.537 739.251C521.755 739.137 521.972 738.997 522.021 738.939C522.069 738.881 522.225 737.997 522.369 736.976C522.512 735.955 522.683 734.741 522.75 734.279C522.815 733.817 522.9 733.18 522.938 732.865C522.976 732.55 523.113 731.57 523.242 730.687C523.372 729.805 523.508 728.859 523.544 728.586C523.581 728.313 523.665 727.711 523.732 727.249C523.799 726.786 523.89 726.133 523.935 725.797C523.98 725.46 524.048 724.945 524.087 724.65C524.143 724.229 524.46 721.926 524.539 721.365C524.581 721.07 524.651 720.571 524.695 720.257C524.739 719.942 524.807 719.477 524.846 719.225C524.885 718.973 524.954 718.475 525 718.117C525.047 717.759 525.133 717.14 525.193 716.741C525.272 716.21 525.972 711.136 526.147 709.826C526.308 708.614 526.616 706.38 526.678 705.967C526.738 705.563 527.114 702.856 527.328 701.267C527.437 700.469 527.574 699.471 527.633 699.051C527.693 698.631 527.796 697.857 527.863 697.332C527.931 696.806 528.017 696.153 528.056 695.88C528.095 695.607 528.197 694.851 528.284 694.199C528.562 692.112 528.987 689.002 529.126 688.047C529.169 687.753 529.307 686.773 529.432 685.869C529.557 684.966 529.677 684.106 529.699 683.959C529.72 683.811 529.911 682.436 530.122 680.902C530.334 679.369 530.554 677.786 530.612 677.387C530.67 676.988 530.755 676.369 530.801 676.012C530.859 675.559 531.324 672.052 531.42 671.35C531.462 671.035 531.618 669.883 531.764 668.79C531.91 667.698 532.081 666.425 532.143 665.963C532.318 664.664 532.833 661.016 532.914 660.499C532.983 660.058 533.04 659.319 533.04 658.856C533.041 658.167 533 657.856 532.81 657.127C532.684 656.639 532.453 655.917 532.297 655.522C532.141 655.128 531.876 654.548 531.706 654.233C531.537 653.918 531.178 653.362 530.909 652.998C530.64 652.634 530.187 652.119 529.902 651.852C529.618 651.585 529.111 651.173 528.777 650.936C528.443 650.698 527.84 650.328 527.437 650.114C527.033 649.899 526.449 649.636 526.138 649.53C525.827 649.423 525.228 649.245 524.808 649.133C524.107 648.947 523.927 648.93 522.63 648.934C521.386 648.937 521.152 648.958 520.682 649.109C520.387 649.203 520.037 649.297 519.902 649.319C519.675 649.355 519.658 649.344 519.673 649.148C519.681 649.033 519.653 648.926 519.61 648.911C519.568 648.895 519.029 649.187 518.414 649.56H518.408Z" fill="#ED8F3E" stroke="#ED8F3E" stroke-width="0.0611328" stroke-linejoin="round"/>
<path fill-rule="evenodd" clip-rule="evenodd" d="M425.566 599.176C425.542 599.2 425.274 599.288 424.971 599.372C424.667 599.456 424.219 599.626 423.976 599.748C423.733 599.871 423.28 600.173 422.97 600.42C422.66 600.667 422.212 601.124 421.974 601.436C421.737 601.749 421.421 602.249 421.272 602.547C421.123 602.846 420.924 603.362 420.829 603.694C420.691 604.177 420.656 604.488 420.656 605.253C420.656 605.802 420.698 606.354 420.755 606.552C420.809 606.74 420.888 606.981 420.932 607.087C420.976 607.192 421.043 607.34 421.083 607.417C421.122 607.493 421.221 607.683 421.302 607.837C421.383 607.991 421.708 608.406 422.024 608.759C422.34 609.111 422.598 609.429 422.598 609.464C422.598 609.5 422.521 609.544 422.426 609.562C422.331 609.581 421.961 609.655 421.604 609.726C421.248 609.797 420.594 609.986 420.153 610.144C419.711 610.302 419.058 610.558 418.701 610.713C418.344 610.867 417.759 611.15 417.403 611.342C417.046 611.535 416.454 611.894 416.086 612.142C415.719 612.389 415.114 612.847 414.742 613.159C414.369 613.471 413.779 614.028 413.43 614.397C413.081 614.766 412.548 615.378 412.245 615.758C411.942 616.137 411.557 616.654 411.388 616.906C411.22 617.158 410.942 617.623 410.771 617.938C410.6 618.253 410.339 618.803 410.193 619.16C410.046 619.518 409.821 620.206 409.694 620.689C409.566 621.172 409.387 621.961 409.297 622.442C409.175 623.085 409.142 623.498 409.167 624.008C409.191 624.468 409.259 624.846 409.37 625.136C409.463 625.376 409.691 625.741 409.878 625.949C410.072 626.165 410.355 626.382 410.542 626.457C410.828 626.571 411.428 626.594 415.643 626.654C418.27 626.692 420.471 626.722 420.535 626.722C420.598 626.722 421.63 626.687 422.827 626.646C424.124 626.601 437.862 626.564 456.794 626.553C474.278 626.543 494.928 626.557 502.682 626.586C510.436 626.614 516.896 626.661 517.037 626.691C517.273 626.741 517.289 626.763 517.247 626.975C517.221 627.106 517.239 627.252 517.289 627.312C517.363 627.402 517.403 627.396 517.537 627.271C517.625 627.19 517.852 627.105 518.042 627.082C518.23 627.058 518.867 626.999 519.455 626.95C520.17 626.891 521.552 626.876 523.62 626.906C525.328 626.93 526.955 626.989 527.25 627.037C527.544 627.085 527.827 627.159 527.88 627.202C527.95 627.258 527.977 627.248 527.977 627.157C527.977 627.087 528.024 627.007 528.083 626.985C528.141 626.962 528.207 626.878 528.228 626.797C528.265 626.653 528.498 626.651 540.828 626.651C552.135 626.651 553.426 626.638 553.748 626.529C554.001 626.443 554.221 626.281 554.502 625.974C554.72 625.737 555.004 625.318 555.133 625.045C555.318 624.654 555.374 624.42 555.397 623.945C555.413 623.612 555.384 623.08 555.334 622.76C555.284 622.441 555.143 621.78 555.022 621.292C554.9 620.803 554.697 620.112 554.571 619.755C554.445 619.398 554.237 618.874 554.11 618.59C553.982 618.305 553.688 617.75 553.456 617.356C553.223 616.962 552.77 616.289 552.447 615.86C552.125 615.431 551.532 614.74 551.132 614.322C550.732 613.905 550.008 613.266 549.524 612.902C549.04 612.538 548.348 612.061 547.986 611.843C547.624 611.624 546.833 611.205 546.228 610.911C545.58 610.596 544.578 610.197 543.781 609.935L542.432 609.494L541.565 609.544C541.088 609.572 536.559 609.606 531.502 609.62C526.445 609.634 522.293 609.667 522.276 609.695C522.259 609.722 522.459 609.766 522.721 609.792C522.983 609.818 523.611 609.858 524.115 609.88C524.619 609.903 525.307 609.954 525.643 609.996C525.98 610.037 526.427 610.119 526.637 610.178C526.847 610.236 527.506 610.475 528.1 610.707C528.695 610.939 529.451 611.265 529.781 611.431C530.111 611.597 530.656 611.929 530.992 612.168C531.329 612.408 531.769 612.764 531.971 612.96C532.172 613.156 532.509 613.583 532.719 613.908C532.928 614.234 533.17 614.664 533.255 614.863C533.341 615.063 533.492 615.507 533.591 615.849C533.691 616.192 533.811 616.754 533.858 617.099C533.92 617.552 533.922 617.87 533.862 618.251C533.817 618.541 533.727 618.941 533.66 619.141C533.594 619.341 533.402 619.78 533.232 620.116C533.063 620.453 532.757 620.969 532.552 621.266C532.347 621.562 531.942 622.063 531.65 622.379C531.359 622.695 530.854 623.138 530.529 623.362C530.205 623.586 529.638 623.903 529.269 624.065C528.901 624.228 528.313 624.448 527.962 624.554C527.611 624.659 526.946 624.816 526.484 624.901C525.74 625.039 525.144 625.066 521.326 625.13C518.952 625.17 516.029 625.183 514.831 625.157C513.632 625.133 512.137 625.081 511.506 625.043C510.876 625.005 510.077 624.92 509.731 624.854C509.386 624.788 508.839 624.649 508.518 624.543C508.196 624.438 507.709 624.244 507.434 624.111C507.16 623.979 506.657 623.666 506.317 623.414C505.977 623.164 505.475 622.728 505.202 622.448C504.929 622.167 504.486 621.631 504.217 621.256C503.949 620.88 503.564 620.23 503.362 619.81C503.16 619.39 502.911 618.754 502.808 618.396C502.706 618.039 502.579 617.437 502.528 617.059C502.448 616.467 502.453 616.272 502.558 615.661C502.625 615.271 502.778 614.738 502.897 614.477C503.015 614.215 503.295 613.778 503.518 613.506C503.741 613.233 504.082 612.86 504.276 612.678C504.47 612.496 504.87 612.174 505.164 611.964C505.458 611.754 505.905 611.477 506.157 611.348C506.409 611.22 507.038 610.948 507.553 610.744C508.068 610.54 508.79 610.306 509.157 610.225C509.525 610.144 510.358 610.042 511.01 609.999C511.662 609.956 512.865 609.899 513.684 609.873C514.503 609.848 515.587 609.814 516.091 609.799C516.596 609.785 517.332 609.77 517.728 609.767C518.124 609.763 518.427 609.74 518.401 609.714C518.375 609.688 498.261 609.658 473.703 609.647C448.783 609.635 428.893 609.597 428.69 609.559C428.344 609.496 428.301 609.459 427.782 608.767C427.482 608.368 427.09 607.732 426.909 607.353C426.729 606.975 426.493 606.36 426.386 605.987C426.278 605.613 426.137 604.952 426.073 604.515C425.967 603.804 425.967 603.61 426.07 602.634C426.134 602.036 426.223 601.408 426.268 601.24C426.313 601.072 426.434 600.688 426.536 600.386C426.639 600.085 426.722 599.749 426.722 599.639C426.722 599.529 426.773 599.42 426.837 599.395C426.9 599.371 426.951 599.312 426.951 599.264C426.951 599.207 426.719 599.168 426.28 599.154C425.911 599.142 425.589 599.151 425.564 599.174L425.566 599.176Z" fill="#E4BD92" stroke="#E4BD92" stroke-width="0.0611328" stroke-linejoin="round"/>
<path fill-rule="evenodd" clip-rule="evenodd" d="M545.447 552.882C545.419 552.91 545.397 553.044 545.397 553.182C545.397 553.32 545.366 553.452 545.327 553.475C545.288 553.499 545.197 553.682 545.124 553.881C545.052 554.081 544.775 554.69 544.51 555.237C544.245 555.783 543.888 556.645 543.719 557.153C543.549 557.66 543.41 558.165 543.41 558.275C543.41 558.385 543.376 558.501 543.334 558.527C543.292 558.553 543.257 558.618 543.257 558.678C543.257 558.737 543.455 558.912 543.697 559.068C543.938 559.223 544.274 559.412 544.442 559.489C544.61 559.565 544.919 559.628 545.129 559.629C545.414 559.63 545.612 559.573 545.902 559.406C546.117 559.283 546.609 558.845 546.998 558.433C547.386 558.02 547.747 557.597 547.801 557.492C547.859 557.378 547.919 556.831 547.948 556.143C547.976 555.507 548.048 554.822 548.108 554.622C548.176 554.397 548.192 554.212 548.151 554.136C548.114 554.07 547.912 553.847 547.702 553.641L547.319 553.266L546.695 553.309L546.072 553.352L545.784 553.093C545.626 552.95 545.475 552.856 545.447 552.882H545.447ZM519.776 669.104C519.281 669.165 518.476 669.319 517.987 669.445C517.497 669.571 516.664 669.845 516.135 670.053C515.606 670.262 514.854 670.615 514.464 670.838C514.075 671.061 513.456 671.456 513.09 671.715C512.724 671.974 512.122 672.454 511.753 672.781C511.385 673.109 510.787 673.721 510.427 674.141C510.066 674.561 509.517 675.289 509.206 675.757C508.896 676.226 508.438 677 508.188 677.476C507.939 677.953 507.594 678.698 507.423 679.131C507.251 679.563 506.994 680.303 506.852 680.774C506.71 681.245 506.521 681.991 506.432 682.432C506.344 682.874 506.204 683.716 506.122 684.304C506.04 684.893 505.904 686.079 505.82 686.941C505.736 687.803 505.632 688.971 505.588 689.539C505.544 690.107 505.457 691.293 505.394 692.175C505.33 693.058 505.246 694.227 505.204 694.773C505.163 695.32 505.093 696.299 505.048 696.951C505.003 697.603 504.916 698.755 504.855 699.511C504.795 700.268 504.712 701.386 504.671 701.995C504.631 702.604 504.545 703.756 504.482 704.555C504.418 705.353 504.297 706.969 504.212 708.146C504.127 709.323 504.024 710.715 503.982 711.241C503.94 711.767 503.869 712.746 503.825 713.419C503.781 714.091 503.678 715.57 503.595 716.705C503.513 717.839 503.36 719.971 503.255 721.442C502.931 725.998 501.847 740.692 501.689 742.686C501.65 743.19 501.608 744.136 501.598 744.788C501.588 745.439 501.546 746.03 501.506 746.085C501.449 746.161 501.458 746.196 501.541 746.278C501.601 746.338 501.873 746.443 502.145 746.514C502.573 746.624 502.922 746.635 504.629 746.598C505.999 746.568 506.983 746.505 507.8 746.394C508.452 746.305 509.414 746.134 509.94 746.013C510.466 745.893 511.531 745.6 512.309 745.364C513.087 745.128 513.884 744.914 514.082 744.889C514.523 744.833 514.775 744.596 514.788 744.221C514.793 744.077 514.856 743.893 514.928 743.812C515.001 743.732 515.041 743.648 515.018 743.624C514.986 743.592 515.405 740.918 516.056 736.993C516.262 735.754 516.554 733.931 516.704 732.943C516.855 731.955 517.078 730.528 517.199 729.772C517.322 729.015 517.734 726.385 518.116 723.926C518.499 721.467 519.083 717.822 519.414 715.826C519.746 713.83 520.225 710.855 520.478 709.216C520.733 707.577 521.097 705.238 521.288 704.02C521.479 702.801 521.72 701.253 521.825 700.581C521.93 699.908 522.186 698.292 522.393 696.989C522.947 693.532 523.515 689.86 524.383 684.151C524.788 681.485 525.381 677.609 525.679 675.669C525.893 674.282 526.118 672.789 526.18 672.351C526.242 671.913 526.291 671.421 526.291 671.259C526.291 671.071 526.223 670.862 526.106 670.69C526.005 670.54 525.809 670.345 525.671 670.254C525.533 670.164 525.281 670.01 525.111 669.911C524.94 669.813 524.526 669.635 524.19 669.518C523.854 669.4 523.287 669.251 522.929 669.186C522.571 669.122 521.919 669.052 521.477 669.03C520.988 669.007 520.323 669.036 519.775 669.104H519.776Z" fill="#F1AC7C" stroke="#F1AC7C" stroke-width="0.0611328" stroke-linejoin="round"/>
<path fill-rule="evenodd" clip-rule="evenodd" d="M587.823 532.202C587.558 532.229 587.302 532.29 587.254 532.338C587.206 532.386 587.075 532.426 586.964 532.426C586.852 532.426 586.042 532.637 585.164 532.895C584.286 533.154 582.97 533.53 582.241 533.732C581.512 533.935 580.841 534.148 580.751 534.207C580.661 534.266 580.347 534.356 580.053 534.408C579.76 534.459 579.48 534.534 579.431 534.574C579.382 534.615 579.237 534.661 579.109 534.677C578.98 534.693 578.005 534.955 576.942 535.26C575.879 535.564 574.987 535.846 574.959 535.887C574.933 535.927 574.878 535.941 574.839 535.917C574.8 535.892 574.444 535.971 574.048 536.092C573.652 536.212 572.623 536.52 571.761 536.774C570.899 537.029 570.06 537.305 569.898 537.389C569.735 537.472 569.442 537.561 569.248 537.586C569.054 537.612 567.803 537.943 566.469 538.32C565.135 538.698 563.949 539.056 563.832 539.116C563.716 539.177 563.531 539.226 563.42 539.226C563.309 539.226 563.2 539.274 563.178 539.333C563.155 539.391 563.229 539.524 563.341 539.628C563.591 539.858 564.36 540.031 564.843 539.965C565.031 539.939 565.43 539.794 565.728 539.644C566.027 539.494 566.441 539.351 566.647 539.326C566.96 539.289 567.022 539.303 567.022 539.406C567.022 539.474 566.888 539.598 566.723 539.682C566.559 539.766 566.155 539.94 565.825 540.069C565.496 540.198 565.037 540.419 564.806 540.56C564.574 540.7 564.231 540.859 564.042 540.912C563.852 540.966 563.57 541.13 563.411 541.28L563.125 541.55L563.385 541.821C563.528 541.97 563.751 542.284 563.881 542.518C564.012 542.753 564.119 543.006 564.119 543.08C564.119 543.154 564.176 543.334 564.244 543.478C564.334 543.668 564.356 543.85 564.322 544.133C564.297 544.348 564.24 544.56 564.198 544.604C564.155 544.647 564.119 544.763 564.119 544.86C564.119 544.958 564.036 545.201 563.936 545.399C563.835 545.597 563.688 545.819 563.608 545.891C563.528 545.964 563.223 546.122 562.93 546.243C562.637 546.364 562.003 546.577 561.52 546.717C561.037 546.856 560.195 547.14 559.649 547.348C559.102 547.555 558.397 547.79 558.082 547.869C557.767 547.948 557.337 548.013 557.127 548.013C556.912 548.012 556.6 547.946 556.415 547.862C556.233 547.78 555.979 547.637 555.851 547.546C555.717 547.45 555.524 547.18 555.398 546.912C555.278 546.655 555.158 546.291 555.133 546.103C555.108 545.915 555.123 545.589 555.166 545.379C555.21 545.168 555.298 544.794 555.36 544.546C555.423 544.298 555.561 543.974 555.666 543.827C555.797 543.642 555.837 543.52 555.792 543.437C555.756 543.37 555.645 543.24 555.546 543.146C555.372 542.984 555.353 542.982 555.026 543.095C554.84 543.159 554.6 543.26 554.493 543.32C554.386 543.38 554.018 543.545 553.676 543.687C553.334 543.829 552.783 544.108 552.453 544.308C552.123 544.508 551.647 544.836 551.395 545.038C551.143 545.24 550.765 545.582 550.554 545.798C550.344 546.014 550.013 546.309 549.818 546.454C549.624 546.598 549.409 546.716 549.341 546.716C549.273 546.716 549.217 546.672 549.217 546.618C549.217 546.565 549.274 546.435 549.345 546.331C549.415 546.228 549.65 545.953 549.866 545.722C550.082 545.491 550.324 545.199 550.402 545.073C550.479 544.947 550.624 544.756 550.722 544.647L550.9 544.451L550.702 544.265L550.504 544.08L550.244 544.363C550.101 544.519 549.894 544.706 549.783 544.778C549.673 544.851 549.303 545.256 548.963 545.679C548.622 546.102 548.174 546.724 547.969 547.06C547.764 547.396 547.407 548.067 547.176 548.55C546.945 549.033 546.638 549.731 546.494 550.101C546.349 550.471 546.24 550.815 546.251 550.865C546.261 550.916 546.213 551.043 546.144 551.148C546.076 551.253 545.875 551.73 545.7 552.209C545.414 552.989 545.392 553.1 545.48 553.279C545.535 553.389 545.642 553.551 545.719 553.639C545.846 553.786 545.921 553.797 546.608 553.767L547.359 553.735L547.562 553.976C547.673 554.109 547.765 554.262 547.765 554.316C547.765 554.374 547.901 554.437 548.09 554.466C548.269 554.494 548.621 554.624 548.872 554.755C549.125 554.886 549.507 555.122 549.723 555.282C550.051 555.524 550.172 555.689 550.463 556.283C550.897 557.173 551.03 557.874 550.902 558.609C550.854 558.885 550.732 559.373 550.629 559.695C550.528 560.017 550.278 560.572 550.074 560.93C549.749 561.502 549.659 561.603 549.309 561.782C549.091 561.894 548.748 562.007 548.547 562.035C548.338 562.064 548.096 562.053 547.981 562.009C547.871 561.967 547.723 561.819 547.653 561.68C547.583 561.541 547.505 561.26 547.481 561.058C547.444 560.757 547.476 560.603 547.649 560.217C547.766 559.957 547.891 559.676 547.926 559.592C548.083 559.215 548.376 558.313 548.376 558.206C548.376 558.105 548.289 557.858 548.185 557.656C548.079 557.455 547.873 557.174 547.726 557.031L547.459 556.772V557.021C547.459 557.158 547.42 557.345 547.372 557.438C547.324 557.529 547.061 557.857 546.787 558.164C546.513 558.471 546.115 558.823 545.9 558.946C545.609 559.113 545.411 559.17 545.12 559.171C544.839 559.172 544.613 559.111 544.317 558.957C544.09 558.839 543.795 558.676 543.66 558.595C543.484 558.489 543.392 558.466 543.332 558.526C543.286 558.572 543.146 558.884 543.019 559.217C542.892 559.549 542.658 560.165 542.498 560.585C542.337 561.006 541.983 561.934 541.71 562.649C541.436 563.363 541.17 564.085 541.117 564.253C541.064 564.421 540.89 564.871 540.729 565.252C540.568 565.633 540.377 566.167 540.303 566.437C540.23 566.706 540.11 567.007 540.036 567.104C539.963 567.201 539.844 567.458 539.772 567.677C539.699 567.897 538.163 571.976 537.564 573.537C537.427 573.895 537.172 574.561 536.999 575.019C536.825 575.477 536.683 575.93 536.683 576.027C536.683 576.123 536.652 576.222 536.614 576.245C536.576 576.269 536.433 576.555 536.297 576.88C536.161 577.206 535.901 577.902 535.718 578.428C535.461 579.168 535.407 579.401 535.481 579.461C535.533 579.504 535.64 579.614 535.719 579.708C535.842 579.852 535.848 579.895 535.759 580.002C535.67 580.11 535.679 580.146 535.824 580.263C535.983 580.392 536.016 580.393 536.357 580.29C536.557 580.23 536.967 580.165 537.267 580.146C537.737 580.118 537.844 580.136 538.031 580.276C538.151 580.366 538.387 580.568 538.555 580.725C538.723 580.882 538.998 581.102 539.166 581.213C539.334 581.325 539.565 581.542 539.68 581.698C539.793 581.853 539.978 582.15 540.088 582.357C540.199 582.564 540.373 583.011 540.476 583.35C540.604 583.777 540.657 584.125 540.648 584.475C540.64 584.753 540.571 585.23 540.493 585.534C540.416 585.837 540.234 586.331 540.089 586.631C539.944 586.931 539.721 587.318 539.593 587.49C539.454 587.677 539.178 587.9 538.907 588.045C538.657 588.178 538.287 588.324 538.083 588.369C537.88 588.415 537.564 588.47 537.383 588.491C537.188 588.514 537.016 588.496 536.966 588.446C536.919 588.399 536.803 588.361 536.709 588.361C536.613 588.361 536.413 588.253 536.262 588.121C536.113 587.99 535.922 587.734 535.84 587.555C535.717 587.284 535.698 587.106 535.724 586.506L535.756 585.783L535.512 585.56C535.378 585.437 535.079 585.21 534.847 585.056C534.616 584.902 534.308 584.654 534.165 584.507C533.964 584.3 533.881 584.258 533.802 584.322C533.718 584.392 533.718 584.428 533.796 584.524C533.88 584.625 533.864 584.636 533.684 584.601C533.528 584.572 533.449 584.602 533.373 584.723C533.316 584.812 533.16 585.162 533.024 585.502C532.888 585.842 532.772 586.204 532.767 586.305C532.762 586.406 532.697 586.576 532.623 586.684C532.526 586.825 532.501 586.966 532.532 587.194C532.564 587.427 532.531 587.6 532.407 587.855C532.315 588.045 532.173 588.222 532.092 588.248C532.011 588.274 531.926 588.387 531.903 588.5C531.88 588.613 531.827 588.833 531.786 588.988C531.745 589.144 531.662 589.32 531.602 589.38C531.543 589.44 531.217 590.23 530.879 591.136C530.54 592.041 530.264 592.846 530.264 592.923C530.264 593 530.195 593.192 530.111 593.349C530.027 593.505 529.958 593.717 529.958 593.819C529.958 593.92 529.93 594.015 529.895 594.029C529.859 594.043 529.693 594.32 529.524 594.644C529.23 595.208 529.222 595.242 529.339 595.422C529.406 595.526 529.685 595.778 529.958 595.984C530.231 596.189 530.507 596.389 530.572 596.428C530.636 596.467 530.997 596.826 531.374 597.225C531.751 597.624 532.254 598.229 532.491 598.569C532.729 598.908 533.069 599.476 533.248 599.83C533.426 600.183 533.685 600.805 533.823 601.21C533.961 601.615 534.134 602.217 534.207 602.547C534.308 603.008 534.344 603.601 534.363 605.096C534.386 606.979 534.392 607.049 534.55 607.179C534.64 607.252 534.81 607.312 534.928 607.312C535.049 607.312 535.248 607.224 535.383 607.11C535.514 607 535.743 606.67 535.889 606.378C536.036 606.087 536.589 604.776 537.117 603.466C537.645 602.156 538.209 600.717 538.369 600.267C538.53 599.818 538.733 599.312 538.818 599.143C538.905 598.974 538.975 598.774 538.975 598.699C538.975 598.625 539.132 598.15 539.324 597.646C539.516 597.141 539.742 596.522 539.827 596.27C539.912 596.018 540.163 595.348 540.385 594.78C540.891 593.487 541.575 591.689 541.87 590.883C542.077 590.315 542.283 589.766 542.328 589.66C542.373 589.555 542.581 589.005 542.79 588.437C542.998 587.87 543.536 586.443 543.983 585.266C544.43 584.089 544.859 582.955 544.936 582.744C545.014 582.534 545.22 582.002 545.394 581.56C545.568 581.118 545.791 580.534 545.888 580.261C545.986 579.988 546.279 579.214 546.538 578.542C546.797 577.869 547.198 576.803 547.429 576.173C547.926 574.816 548.908 572.211 549.209 571.453C549.421 570.917 549.876 569.731 550.217 568.817C550.56 567.903 550.968 566.812 551.124 566.391C551.522 565.326 552.143 563.726 552.385 563.144C552.569 562.702 552.845 562.014 553 561.615C553.154 561.217 553.429 560.477 553.611 559.973C553.792 559.468 554.082 558.695 554.254 558.253C554.427 557.811 554.701 557.09 554.863 556.648C555.025 556.207 555.234 555.674 555.327 555.464C555.42 555.254 555.576 554.85 555.673 554.568C555.771 554.285 556.033 553.686 556.257 553.236C556.501 552.743 556.811 552.255 557.036 552.008C557.242 551.784 557.552 551.518 557.724 551.419C557.897 551.319 558.418 551.117 558.88 550.97C559.342 550.822 560.718 550.421 561.937 550.077C563.155 549.734 564.978 549.202 565.987 548.894C566.995 548.587 568.32 548.191 568.929 548.015C570.099 547.676 575.659 546.032 576.303 545.835C576.765 545.693 577.59 545.452 578.135 545.298C578.681 545.146 579.902 544.78 580.848 544.488C581.794 544.196 583.239 543.768 584.059 543.536C585.076 543.25 588.425 542.275 589.332 542.003C589.689 541.895 590.152 541.721 590.359 541.615C590.567 541.51 590.917 541.287 591.137 541.121C591.357 540.956 591.68 540.631 591.854 540.4C592.028 540.169 592.288 539.733 592.431 539.431C592.574 539.129 592.764 538.59 592.853 538.232C592.977 537.733 593.007 537.423 592.983 536.895C592.957 536.337 592.903 536.096 592.702 535.619C592.566 535.296 592.289 534.797 592.087 534.511C591.886 534.226 591.516 533.797 591.266 533.559C590.995 533.303 590.567 533.005 590.205 532.825C589.872 532.658 589.375 532.452 589.102 532.366C588.83 532.279 588.537 532.196 588.453 532.181C588.369 532.165 588.083 532.174 587.819 532.201L587.823 532.202Z" fill="#EB4E32" stroke="#EB4E32" stroke-width="0.0611328" stroke-linejoin="round"/>
<path fill-rule="evenodd" clip-rule="evenodd" d="M498.376 648.622C498.004 648.68 497.437 648.801 497.115 648.891C496.792 648.981 496.208 649.171 495.816 649.312C495.424 649.454 494.874 649.691 494.594 649.84C494.313 649.989 493.758 650.342 493.361 650.625C492.964 650.908 492.328 651.45 491.947 651.829C491.567 652.209 491.118 652.714 490.95 652.953C490.782 653.191 490.567 653.428 490.472 653.479C490.335 653.553 490.201 653.553 489.822 653.477C489.56 653.424 488.813 653.362 488.161 653.34C487.183 653.306 486.817 653.327 486.059 653.456C485.554 653.543 484.815 653.722 484.416 653.855C484.017 653.988 483.319 654.286 482.866 654.517C482.162 654.875 482.024 654.921 481.92 654.835C481.853 654.779 481.588 654.458 481.332 654.121C481.076 653.784 480.642 653.287 480.368 653.016C480.094 652.746 479.509 652.254 479.068 651.925C478.592 651.57 477.86 651.124 477.272 650.831C476.725 650.559 475.918 650.221 475.476 650.078C475.034 649.935 474.381 649.755 474.024 649.677C473.508 649.566 473.036 649.537 471.732 649.535C470.284 649.534 469.993 649.555 469.286 649.713C468.845 649.812 468.125 650.012 467.688 650.158C467.25 650.304 466.59 650.575 466.223 650.76C465.855 650.945 465.302 651.245 464.994 651.427C464.686 651.609 464.374 651.781 464.302 651.809C464.229 651.836 463.902 651.772 463.576 651.664C462.791 651.407 461.275 651.228 460.308 651.279C459.888 651.301 459.269 651.376 458.933 651.446C458.596 651.515 457.994 651.676 457.595 651.803C457.196 651.929 456.506 652.219 456.061 652.445C455.616 652.672 455.215 652.857 455.169 652.857C455.123 652.857 455.075 652.885 455.061 652.92C455.047 652.954 454.777 653.19 454.462 653.445C454.147 653.699 453.642 654.167 453.341 654.485C453.039 654.803 452.735 655.15 452.664 655.257C452.594 655.364 452.424 655.522 452.287 655.607C452.149 655.691 451.951 655.761 451.846 655.761C451.74 655.761 451.322 655.846 450.914 655.949C450.508 656.052 449.927 656.257 449.624 656.404C449.322 656.55 448.92 656.809 448.73 656.979L448.386 657.287L448.567 657.441C448.855 657.686 449.449 657.644 450.606 657.297C451.15 657.133 451.915 656.957 452.306 656.903C452.744 656.844 453.328 656.825 453.834 656.854C454.284 656.88 454.962 656.968 455.34 657.048C455.719 657.128 456.306 657.302 456.646 657.433C456.986 657.564 457.588 657.884 457.984 658.143C458.379 658.402 458.995 658.904 459.351 659.259C459.97 659.874 460.015 659.887 460.345 659.89C460.534 659.891 461.102 659.818 461.606 659.707C462.111 659.596 462.893 659.464 463.345 659.414C464.052 659.334 464.299 659.34 465.119 659.453C465.644 659.524 466.382 659.686 466.762 659.809C467.142 659.933 467.736 660.171 468.083 660.337C468.43 660.503 468.976 660.81 469.297 661.02C469.618 661.23 470.168 661.653 470.52 661.961C470.871 662.269 471.379 662.739 471.649 663.004C471.988 663.337 472.177 663.471 472.26 663.436C472.327 663.409 472.863 663.285 473.451 663.162C474.878 662.862 476.035 662.809 477.372 662.981C477.931 663.053 478.495 663.142 478.624 663.179C478.753 663.216 478.902 663.221 478.952 663.191C479.003 663.16 479.598 662.547 480.273 661.828C480.949 661.109 481.81 660.262 482.187 659.946C482.564 659.629 483.228 659.135 483.663 658.847C484.098 658.56 484.867 658.115 485.371 657.859C485.875 657.603 486.731 657.231 487.272 657.033C487.814 656.833 488.639 656.573 489.106 656.453C489.573 656.333 490.42 656.175 490.988 656.103C491.785 656.001 492.323 655.981 493.357 656.016C494.092 656.041 495.072 656.117 495.534 656.186C495.997 656.254 496.827 656.426 497.379 656.566C497.932 656.707 498.791 656.984 499.289 657.181C499.788 657.377 500.471 657.677 500.807 657.845C501.143 658.014 501.753 658.353 502.162 658.6C502.571 658.847 503.354 659.341 503.903 659.698C504.451 660.055 504.953 660.347 505.018 660.347C505.082 660.347 505.245 660.266 505.378 660.168C505.512 660.069 506 659.78 506.462 659.523C506.924 659.267 507.606 658.935 507.977 658.786C508.349 658.637 508.893 658.443 509.188 658.355C509.483 658.267 510.194 658.095 510.767 657.972C511.34 657.849 511.955 657.748 512.133 657.748C512.391 657.748 512.481 657.71 512.577 657.564C512.644 657.463 512.821 656.99 512.972 656.513C513.122 656.036 513.252 655.533 513.261 655.394C513.269 655.256 513.238 655.12 513.193 655.092C513.148 655.063 512.559 655.051 511.884 655.063L510.658 655.086L510.65 654.826C510.646 654.667 510.489 654.289 510.243 653.845C510.023 653.449 509.773 653.021 509.687 652.895C509.6 652.769 509.347 652.454 509.123 652.195C508.899 651.937 508.716 651.677 508.716 651.616C508.716 651.557 508.634 651.43 508.532 651.335L508.348 651.162L508.297 651.322C508.27 651.41 508.22 651.482 508.187 651.482C508.155 651.482 507.992 651.387 507.825 651.272C507.659 651.156 507.215 650.85 506.838 650.594C506.461 650.336 505.896 649.997 505.583 649.839C505.27 649.682 504.72 649.439 504.361 649.301C504.003 649.162 503.366 648.962 502.945 648.857C502.525 648.751 501.913 648.628 501.584 648.583C501.256 648.538 500.55 648.505 500.018 648.509C499.485 648.513 498.745 648.564 498.374 648.621L498.376 648.622Z" fill="#C27F52" stroke="#C27F52" stroke-width="0.0611328" stroke-linejoin="round"/>
<path fill-rule="evenodd" clip-rule="evenodd" d="M561.673 541.097C561.359 541.151 560.331 541.407 559.389 541.667C558.449 541.928 557.424 542.241 557.113 542.365C556.802 542.489 556.334 542.697 556.073 542.827C555.812 542.957 555.52 543.135 555.426 543.222C555.303 543.335 555.279 543.397 555.345 543.438C555.41 543.478 555.377 543.58 555.225 543.799C555.109 543.966 554.964 544.304 554.901 544.549C554.839 544.795 554.752 545.168 554.708 545.378C554.665 545.588 554.649 545.914 554.675 546.102C554.7 546.29 554.82 546.655 554.94 546.912C555.06 547.168 555.309 547.524 555.494 547.7C555.678 547.877 556.032 548.123 556.28 548.247C556.6 548.408 556.843 548.473 557.116 548.473C557.327 548.473 557.726 548.418 558.002 548.351C558.277 548.284 558.95 548.061 559.496 547.855C560.043 547.648 560.902 547.36 561.407 547.212C561.911 547.065 562.592 546.836 562.919 546.705C563.321 546.544 563.626 546.358 563.859 546.132C564.048 545.948 564.304 545.586 564.426 545.327C564.548 545.068 564.628 544.824 564.604 544.784C564.579 544.745 564.598 544.688 564.645 544.659C564.693 544.63 564.753 544.394 564.78 544.134C564.813 543.818 564.8 543.627 564.74 543.554C564.69 543.494 564.637 543.338 564.62 543.206C564.603 543.074 564.46 542.736 564.303 542.453C564.145 542.17 563.919 541.842 563.801 541.723C563.682 541.605 563.585 541.492 563.585 541.475C563.585 541.457 563.645 541.443 563.717 541.443C563.841 541.443 563.84 541.434 563.694 541.288C563.601 541.195 563.361 541.105 563.085 541.06C562.835 541.018 562.544 540.989 562.439 540.993C562.334 540.996 561.99 541.044 561.675 541.097H561.673ZM547.733 554.043C547.704 554.089 547.698 554.156 547.72 554.191C547.741 554.226 547.71 554.417 547.65 554.616C547.591 554.815 547.519 555.465 547.491 556.062L547.442 557.146L547.68 557.578C547.812 557.816 547.918 558.095 547.918 558.199C547.918 558.312 547.632 559.199 547.468 559.591C547.433 559.675 547.309 559.956 547.192 560.216C547.017 560.603 546.987 560.754 547.024 561.065C547.048 561.272 547.143 561.575 547.234 561.739C547.325 561.902 547.469 562.112 547.556 562.206C547.642 562.3 547.828 562.414 547.97 562.461C548.127 562.513 548.353 562.526 548.55 562.494C548.729 562.465 549.071 562.355 549.311 562.248C549.633 562.106 549.827 561.952 550.05 561.664C550.216 561.448 550.489 561.014 550.659 560.699C550.828 560.385 551.05 559.834 551.153 559.477C551.256 559.119 551.363 558.654 551.392 558.442C551.421 558.219 551.406 557.833 551.355 557.525C551.305 557.226 551.139 556.727 550.974 556.382C550.814 556.046 550.561 555.612 550.413 555.418C550.264 555.223 550.013 554.988 549.854 554.894C549.695 554.8 549.519 554.658 549.464 554.579C549.408 554.498 549.312 554.433 549.25 554.433C549.189 554.433 548.976 554.349 548.777 554.245C548.579 554.142 548.274 554.035 548.1 554.008C547.882 553.973 547.769 553.984 547.733 554.043ZM536.494 579.793C536.134 579.868 535.751 580.005 535.56 580.129C535.382 580.244 535.201 580.338 535.159 580.338C535.116 580.338 535.081 580.389 535.081 580.45C535.081 580.512 535.016 580.596 534.938 580.638C534.861 580.68 534.656 581.051 534.486 581.462C534.316 581.874 534.018 582.671 533.826 583.232C533.633 583.795 533.476 584.284 533.476 584.321C533.476 584.358 533.526 584.388 533.589 584.388C533.651 584.388 533.762 584.482 533.837 584.595C533.912 584.709 534.093 584.914 534.24 585.049C534.388 585.185 534.685 585.41 534.901 585.549L535.295 585.802L535.266 586.516C535.242 587.097 535.263 587.288 535.381 587.547C535.46 587.722 535.615 587.949 535.723 588.05C535.832 588.152 535.921 588.275 535.921 588.322C535.921 588.37 536.021 588.483 536.143 588.573C536.264 588.663 536.462 588.758 536.582 588.785C536.702 588.811 536.874 588.868 536.964 588.911C537.054 588.955 537.261 588.973 537.423 588.95C537.585 588.928 537.884 588.873 538.086 588.828C538.289 588.783 538.661 588.636 538.914 588.502C539.185 588.357 539.539 588.072 539.782 587.804C540.008 587.554 540.331 587.071 540.501 586.729C540.67 586.387 540.878 585.836 540.963 585.503C541.048 585.171 541.117 584.687 541.117 584.428C541.117 584.152 541.042 583.704 540.934 583.345C540.833 583.009 540.661 582.564 540.549 582.357C540.438 582.15 540.26 581.861 540.155 581.715C540.049 581.569 539.838 581.303 539.684 581.123C539.531 580.944 539.342 580.797 539.265 580.797C539.188 580.797 539.105 580.745 539.081 580.682C539.057 580.62 538.955 580.568 538.854 580.568C538.725 580.568 538.671 580.525 538.671 580.422C538.671 580.334 538.512 580.162 538.27 579.987C537.949 579.756 537.793 579.695 537.487 579.682C537.277 579.673 536.83 579.722 536.494 579.793H536.494ZM514.572 744.24C514.498 744.322 514.29 744.402 514.083 744.428C513.885 744.453 513.087 744.666 512.309 744.903C511.531 745.139 510.465 745.432 509.94 745.553C509.414 745.674 508.452 745.845 507.8 745.933C506.983 746.044 505.999 746.108 504.629 746.137C502.926 746.175 502.572 746.163 502.15 746.054C501.666 745.93 501.655 745.934 501.506 746.082C501.379 746.209 501.351 746.354 501.33 747.016C501.316 747.449 501.235 748.818 501.15 750.058C500.995 752.299 500.673 756.758 500.572 758.043C500.509 758.842 500.401 760.407 500.33 761.52C500.26 762.633 500.201 764.421 500.199 765.494C500.196 767.128 500.218 767.539 500.337 768.044C500.414 768.374 500.581 768.887 500.707 769.184C500.833 769.481 501.066 769.898 501.223 770.111C501.38 770.325 501.678 770.665 501.882 770.867C502.106 771.087 502.515 771.364 502.901 771.555C503.489 771.846 503.594 771.874 504.089 771.863C504.496 771.854 504.789 771.79 505.265 771.607C505.613 771.472 506.117 771.216 506.386 771.036C506.653 770.856 507.065 770.545 507.301 770.343C507.537 770.141 507.941 769.716 508.197 769.397C508.454 769.078 508.88 768.491 509.142 768.091C509.405 767.691 509.827 766.969 510.08 766.486C510.334 766.003 510.734 765.127 510.971 764.538C511.207 763.95 511.515 763.089 511.656 762.625C511.797 762.161 512 761.364 512.108 760.854C512.215 760.343 512.458 758.969 512.646 757.8C512.834 756.631 513.162 754.556 513.376 753.191C513.589 751.824 513.917 749.793 514.104 748.677C514.29 747.56 514.514 746.15 514.601 745.544C514.688 744.937 514.778 744.364 514.802 744.269C514.829 744.16 514.818 744.097 514.772 744.097C514.732 744.097 514.641 744.161 514.57 744.239L514.572 744.24Z" fill="#E69365" stroke="#E69365" stroke-width="0.0611328" stroke-linejoin="round"/>
<path fill-rule="evenodd" clip-rule="evenodd" d="M566.335 538.913C566.23 538.947 565.929 539.085 565.666 539.218C565.403 539.351 565.033 539.482 564.844 539.507C564.656 539.533 564.286 539.51 564.024 539.456C563.761 539.401 563.505 539.326 563.455 539.287C563.396 539.241 562.317 539.527 560.36 540.109C558.708 540.6 556.772 541.171 556.057 541.378C555.343 541.585 554.466 541.861 554.109 541.991C553.751 542.121 553.27 542.323 553.039 542.438C552.807 542.554 552.517 542.744 552.392 542.86C552.268 542.976 552.009 543.139 551.819 543.221C551.629 543.305 551.266 543.519 551.014 543.699C550.762 543.878 550.437 544.149 550.292 544.3C550.146 544.452 550.062 544.575 550.104 544.575C550.146 544.575 550.222 544.534 550.272 544.484C550.341 544.415 550.364 544.414 550.364 544.479C550.364 544.527 550.328 544.588 550.285 544.615C550.241 544.642 550.117 544.804 550.01 544.974C549.902 545.145 549.628 545.463 549.401 545.68C549.174 545.898 548.989 546.117 548.989 546.166C548.989 546.215 548.958 546.256 548.921 546.256C548.884 546.256 548.834 546.331 548.81 546.425C548.785 546.518 548.803 546.742 548.849 546.923C548.895 547.104 548.963 547.271 549.001 547.295C549.148 547.386 549.838 546.93 550.503 546.302C550.91 545.917 551.432 545.461 551.664 545.29C551.896 545.119 552.325 544.838 552.619 544.666C552.913 544.494 553.412 544.248 553.727 544.121C554.042 543.993 554.397 543.834 554.514 543.768C554.631 543.701 554.82 543.618 554.934 543.584C555.048 543.55 555.201 543.498 555.275 543.468C555.366 543.431 555.408 543.449 555.408 543.527C555.408 543.61 555.554 543.564 555.962 543.35C556.267 543.192 556.781 542.956 557.103 542.829C557.426 542.701 558.492 542.375 559.472 542.106C560.453 541.837 561.547 541.575 561.904 541.526C562.378 541.459 562.686 541.455 563.045 541.513C563.315 541.557 563.573 541.565 563.618 541.532C563.663 541.498 563.855 541.427 564.043 541.374C564.232 541.321 564.545 541.177 564.738 541.055C564.931 540.933 565.427 540.695 565.838 540.527C566.251 540.359 566.736 540.135 566.917 540.029C567.099 539.922 567.334 539.721 567.441 539.582C567.547 539.442 567.634 539.28 567.634 539.22C567.634 539.161 567.539 539.068 567.424 539.013C567.309 538.958 567.06 538.899 566.871 538.882C566.682 538.864 566.441 538.878 566.336 538.913H566.335ZM519.225 626.494C518.846 626.528 518.331 626.581 518.078 626.612C517.72 626.655 517.578 626.713 517.429 626.875C517.323 626.989 517.129 627.388 516.995 627.763C516.861 628.137 516.581 628.891 516.373 629.437C516.164 629.983 515.703 631.204 515.348 632.15C514.994 633.096 514.661 634.036 514.611 634.24C514.56 634.445 514.421 634.806 514.302 635.043C514.183 635.28 513.922 635.921 513.722 636.467C513.522 637.014 513.263 637.736 513.145 638.072C513.027 638.408 512.701 639.285 512.419 640.021C512.137 640.756 511.6 642.183 511.225 643.192C510.849 644.201 510.359 645.542 510.133 646.172C509.908 646.802 509.429 648.109 509.069 649.076C508.708 650.043 508.373 651.028 508.322 651.264L508.231 651.695L508.652 652.181C508.883 652.449 509.142 652.771 509.229 652.897C509.315 653.023 509.567 653.453 509.788 653.852C510.112 654.436 510.19 654.645 510.186 654.92C510.184 655.108 510.214 655.324 510.254 655.398C510.318 655.518 510.455 655.533 511.499 655.533C512.144 655.533 512.771 655.513 512.891 655.489C513.059 655.455 513.228 655.282 513.607 654.754C513.88 654.375 514.357 653.721 514.666 653.302C514.976 652.884 515.476 652.291 515.777 651.986C516.078 651.681 516.6 651.227 516.936 650.977C517.273 650.727 518.018 650.249 518.592 649.914L519.636 649.305L519.786 648.885C520 648.29 521.707 643.707 522.164 642.504C522.548 641.495 523.31 639.467 523.858 637.996C524.406 636.525 524.993 634.977 525.163 634.557C525.333 634.137 525.501 633.76 525.538 633.72C525.575 633.68 525.605 633.6 525.605 633.542C525.605 633.484 525.791 632.949 526.018 632.354C526.246 631.758 526.748 630.446 527.134 629.437C527.521 628.428 527.899 627.4 527.975 627.155C528.076 626.833 528.09 626.708 528.025 626.689C527.976 626.674 527.643 626.623 527.286 626.574C526.903 626.521 525.257 626.474 523.274 626.458C521.425 626.444 519.602 626.46 519.224 626.494H519.225Z" fill="#F16E57" stroke="#F16E57" stroke-width="0.0611328" stroke-linejoin="round"/>
<g filter="url(#filter4_iig_3324_1523)">
<path d="M385.49 658.503C347.194 651.221 338.91 651.451 317.297 640.91C298.469 631.728 242.137 682.441 198.813 724.498C190.603 732.469 194.006 746.556 204.869 750.154C251.183 765.496 329.632 791.321 376.39 776.67C478.225 744.761 459.389 674.793 385.49 658.503Z" fill="#F7D145"/>
</g>
<g filter="url(#filter5_iig_3324_1523)">
<path d="M547.875 682.74C579.046 659.33 586.584 655.887 601.343 636.903C614.2 620.365 687.113 641.073 744.534 659.742C755.416 663.28 758.567 677.425 750.401 685.441C715.582 719.619 656.535 777.365 608.105 784.811C502.627 801.031 488.711 729.92 547.875 682.74Z" fill="#F7D145"/>
</g>
<path d="M411.48 428C419.679 428 423 432 424.408 434.321C431.456 442.807 434.448 450.812 435.286 461.939C436.531 478.451 428.581 501.025 409.176 501.922C402.907 502.212 396.783 499.978 392.177 495.714C372.967 478.168 379.456 428.811 411.48 428Z" fill="#1C170B"/>
<g filter="url(#filter6_f_3324_1523)">
<path d="M402.589 435.31C405.113 435.115 406.119 435.015 408.226 436.218C409.449 437.699 409.295 438.305 409.367 440.116C410.18 440.625 410.898 441.111 411.694 441.647L411.904 442.956C419.014 456.194 406.034 468.295 397.004 457.028C387.109 457.791 393.027 445.603 396.045 441.344C398.038 438.531 399.869 437.302 402.589 435.31Z" fill="#FAF3EC"/>
</g>
<g filter="url(#filter7_f_3324_1523)">
<path d="M402.405 435.12C405.005 434.923 406.041 434.822 408.211 436.033C409.471 437.522 409.312 438.132 409.386 439.954C410.224 440.465 410.964 440.954 411.784 441.493L412 442.811C408.557 441.118 406.625 439.187 402.54 440.654C395.773 443.086 394.268 451.112 396.652 456.966C386.459 457.733 392.555 445.473 395.664 441.189C397.717 438.36 399.602 437.123 402.405 435.12Z" fill="#3A372F"/>
</g>
<path d="M589.37 428.706C621.867 428.523 630.994 493.598 594.352 502.663C555.686 504.419 554.456 433.119 589.37 428.706Z" fill="#1C170B"/>
<g filter="url(#filter8_f_3324_1523)">
<path d="M576.491 452.759C577.097 454.049 577.14 454.759 576.609 455.979C569.334 454.164 573.452 439.586 580.007 437.664C584.2 436.436 587.824 438.013 589.306 442.115C592.619 444.137 594.847 446.01 595.749 450.049C596.355 452.791 595.845 455.661 594.331 458.027C589.038 466.354 580.303 462.46 578.515 452.619C577.656 451.775 577.93 451.624 577.758 450.079L577.591 450.499L577.887 450.8L577.387 452.615L576.491 452.759Z" fill="#FAF3EC"/>
</g>
<g filter="url(#filter9_f_3324_1523)">
<path d="M576.06 452.732C576.72 454.041 576.766 454.762 576.188 456C568.275 454.158 572.754 439.363 579.885 437.413C584.446 436.166 588.388 437.766 590 441.93L585.246 442.04C580.159 445.421 579.418 446.592 578.261 452.59C577.327 451.734 577.625 451.58 577.438 450.013L577.257 450.438L577.578 450.743L577.035 452.586L576.06 452.732Z" fill="#312E24"/>
</g>
<g filter="url(#filter10_f_3324_1523)">
<path d="M576.49 452.759L575.948 452.886L575.475 452.235C575.11 444.84 575.121 438.674 584.935 442.224C580.259 445.556 579.577 446.709 578.514 452.619C577.655 451.776 577.929 451.624 577.757 450.08L577.591 450.499L577.886 450.8L577.387 452.615L576.49 452.759Z" fill="#534639"/>
</g>
<path d="M354.002 488.785C366.292 488.07 381.734 490.477 385.001 505.019C386.026 509.579 385.143 514.363 382.556 518.257C378.409 524.432 372.217 526.795 365.337 528.245C353.923 529.158 338.873 527.064 334.774 514.24C333.375 509.718 333.887 504.821 336.192 500.686C339.888 493.968 346.962 490.735 354.002 488.785Z" fill="#F9A6A0"/>
<g filter="url(#filter11_f_3324_1523)">
<path d="M368 494C373.244 494.048 380.363 498.673 380 504C375.832 504.091 367.526 498.087 368 494Z" fill="#FDC3BF"/>
</g>
<path d="M626.146 494.285C641.877 485.407 671.147 495.187 664.86 516.522C657.951 539.968 605.954 533.98 615.075 505.471C615.73 503.36 618.571 499.408 620.251 497.867C621.588 496.68 624.466 495.224 626.146 494.285Z" fill="#EF928B"/>
<g filter="url(#filter12_f_3324_1523)">
<path d="M632.013 497C626.77 497.048 619.65 501.673 620.013 507C624.181 507.091 632.487 501.087 632.013 497Z" fill="#FDC3BF"/>
</g>
<path d="M471.504 494.784C471.5 491.499 475 489 478.416 490.134C480.5 491.5 480.95 493.63 482.461 495.842C489.371 505.97 498.06 507.141 509.126 502.936C514.767 498.973 514.929 497.593 518.612 491.664C528.419 484.735 532.464 504.579 511.184 513.085C503.114 516.238 494.124 516.055 486.187 512.586C478.627 509.187 473.047 503.065 471.504 494.784Z" fill="#1C170B"/>
<path d="M509.127 502.936C514.767 498.973 514.929 497.593 518.612 491.664L520.234 492.572C521.198 496.986 512.309 506.706 507.958 505.884L507.711 505.234L509.127 502.936Z" fill="#312E24"/>
<defs>
<filter id="filter0_iig_3324_1523" x="90.3857" y="238.634" width="765.268" height="762.13" filterUnits="userSpaceOnUse" color-interpolation-filters="sRGB">
<feFlood flood-opacity="0" result="BackgroundImageFix"/>
<feBlend mode="normal" in="SourceGraphic" in2="BackgroundImageFix" result="shape"/>
<feColorMatrix in="SourceAlpha" type="matrix" values="0 0 0 0 0 0 0 0 0 0 0 0 0 0 0 0 0 0 127 0" result="hardAlpha"/>
<feOffset dx="17" dy="28"/>
<feGaussianBlur stdDeviation="10.45"/>
<feComposite in2="hardAlpha" operator="arithmetic" k2="-1" k3="1"/>
<feColorMatrix type="matrix" values="0 0 0 0 0.962384 0 0 0 0 0.860378 0 0 0 0 0.484572 0 0 0 1 0"/>
<feBlend mode="normal" in2="shape" result="effect1_innerShadow_3324_1523"/>
<feColorMatrix in="SourceAlpha" type="matrix" values="0 0 0 0 0 0 0 0 0 0 0 0 0 0 0 0 0 0 127 0" result="hardAlpha"/>
<feOffset dx="-27" dy="-22"/>
<feGaussianBlur stdDeviation="29.75"/>
<feComposite in2="hardAlpha" operator="arithmetic" k2="-1" k3="1"/>
<feColorMatrix type="matrix" values="0 0 0 0 0.797063 0 0 0 0 0.575703 0 0 0 0 0.0980312 0 0 0 1 0"/>
<feBlend mode="normal" in2="effect1_innerShadow_3324_1523" result="effect2_innerShadow_3324_1523"/>
<feTurbulence type="fractalNoise" baseFrequency="0.99900001287460327 0.99900001287460327" numOctaves="3" seed="8703" />
<feDisplacementMap in="effect2_innerShadow_3324_1523" scale="8" xChannelSelector="R" yChannelSelector="G" result="displacedImage" width="100%" height="100%" />
<feMerge result="effect3_texture_3324_1523">
<feMergeNode in="displacedImage"/>
</feMerge>
</filter>
<filter id="filter1_iig_3324_1523" x="379" y="22" width="233" height="237" filterUnits="userSpaceOnUse" color-interpolation-filters="sRGB">
<feFlood flood-opacity="0" result="BackgroundImageFix"/>
<feBlend mode="normal" in="SourceGraphic" in2="BackgroundImageFix" result="shape"/>
<feColorMatrix in="SourceAlpha" type="matrix" values="0 0 0 0 0 0 0 0 0 0 0 0 0 0 0 0 0 0 127 0" result="hardAlpha"/>
<feOffset dx="9" dy="2"/>
<feGaussianBlur stdDeviation="5.65"/>
<feComposite in2="hardAlpha" operator="arithmetic" k2="-1" k3="1"/>
<feColorMatrix type="matrix" values="0 0 0 0 1 0 0 0 0 1 0 0 0 0 1 0 0 0 1 0"/>
<feBlend mode="normal" in2="shape" result="effect1_innerShadow_3324_1523"/>
<feColorMatrix in="SourceAlpha" type="matrix" values="0 0 0 0 0 0 0 0 0 0 0 0 0 0 0 0 0 0 127 0" result="hardAlpha"/>
<feOffset dx="-2" dy="-13"/>
<feGaussianBlur stdDeviation="19.7"/>
<feComposite in2="hardAlpha" operator="arithmetic" k2="-1" k3="1"/>
<feColorMatrix type="matrix" values="0 0 0 0 0.797063 0 0 0 0 0.575703 0 0 0 0 0.0980312 0 0 0 1 0"/>
<feBlend mode="normal" in2="effect1_innerShadow_3324_1523" result="effect2_innerShadow_3324_1523"/>
<feTurbulence type="fractalNoise" baseFrequency="0.99900001287460327 0.99900001287460327" numOctaves="3" seed="8703" />
<feDisplacementMap in="effect2_innerShadow_3324_1523" scale="8" xChannelSelector="R" yChannelSelector="G" result="displacedImage" width="100%" height="100%" />
<feMerge result="effect3_texture_3324_1523">
<feMergeNode in="displacedImage"/>
</feMerge>
</filter>
<filter id="filter2_f_3324_1523" x="423.5" y="239.5" width="153.771" height="66.8594" filterUnits="userSpaceOnUse" color-interpolation-filters="sRGB">
<feFlood flood-opacity="0" result="BackgroundImageFix"/>
<feBlend mode="normal" in="SourceGraphic" in2="BackgroundImageFix" result="shape"/>
<feGaussianBlur stdDeviation="11.25" result="effect1_foregroundBlur_3324_1523"/>
</filter>
<filter id="filter3_f_3324_1523" x="434.976" y="217.946" width="123.537" height="57.3711" filterUnits="userSpaceOnUse" color-interpolation-filters="sRGB">
<feFlood flood-opacity="0" result="BackgroundImageFix"/>
<feBlend mode="normal" in="SourceGraphic" in2="BackgroundImageFix" result="shape"/>
<feGaussianBlur stdDeviation="11.25" result="effect1_foregroundBlur_3324_1523"/>
</filter>
<filter id="filter4_iig_3324_1523" x="190.256" y="624.722" width="260.635" height="160.295" filterUnits="userSpaceOnUse" color-interpolation-filters="sRGB">
<feFlood flood-opacity="0" result="BackgroundImageFix"/>
<feBlend mode="normal" in="SourceGraphic" in2="BackgroundImageFix" result="shape"/>
<feColorMatrix in="SourceAlpha" type="matrix" values="0 0 0 0 0 0 0 0 0 0 0 0 0 0 0 0 0 0 127 0" result="hardAlpha"/>
<feOffset dx="1" dy="-20"/>
<feGaussianBlur stdDeviation="7.55"/>
<feComposite in2="hardAlpha" operator="arithmetic" k2="-1" k3="1"/>
<feColorMatrix type="matrix" values="0 0 0 0 0.973501 0 0 0 0 0.909066 0 0 0 0 0.671677 0 0 0 1 0"/>
<feBlend mode="normal" in2="shape" result="effect1_innerShadow_3324_1523"/>
<feColorMatrix in="SourceAlpha" type="matrix" values="0 0 0 0 0 0 0 0 0 0 0 0 0 0 0 0 0 0 127 0" result="hardAlpha"/>
<feOffset dx="3" dy="-8"/>
<feGaussianBlur stdDeviation="3.55"/>
<feComposite in2="hardAlpha" operator="arithmetic" k2="-1" k3="1"/>
<feColorMatrix type="matrix" values="0 0 0 0 0.796078 0 0 0 0 0.576471 0 0 0 0 0.0980392 0 0 0 0.8 0"/>
<feBlend mode="normal" in2="effect1_innerShadow_3324_1523" result="effect2_innerShadow_3324_1523"/>
<feTurbulence type="fractalNoise" baseFrequency="0.99900001287460327 0.99900001287460327" numOctaves="3" seed="8703" />
<feDisplacementMap in="effect2_innerShadow_3324_1523" scale="8" xChannelSelector="R" yChannelSelector="G" result="displacedImage" width="100%" height="100%" />
<feMerge result="effect3_texture_3324_1523">
<feMergeNode in="displacedImage"/>
</feMerge>
</filter>
<filter id="filter5_iig_3324_1523" x="509.092" y="615.765" width="249.913" height="175.403" filterUnits="userSpaceOnUse" color-interpolation-filters="sRGB">
<feFlood flood-opacity="0" result="BackgroundImageFix"/>
<feBlend mode="normal" in="SourceGraphic" in2="BackgroundImageFix" result="shape"/>
<feColorMatrix in="SourceAlpha" type="matrix" values="0 0 0 0 0 0 0 0 0 0 0 0 0 0 0 0 0 0 127 0" result="hardAlpha"/>
<feOffset dx="1" dy="-20"/>
<feGaussianBlur stdDeviation="7.55"/>
<feComposite in2="hardAlpha" operator="arithmetic" k2="-1" k3="1"/>
<feColorMatrix type="matrix" values="0 0 0 0 0.973501 0 0 0 0 0.909066 0 0 0 0 0.671677 0 0 0 1 0"/>
<feBlend mode="normal" in2="shape" result="effect1_innerShadow_3324_1523"/>
<feColorMatrix in="SourceAlpha" type="matrix" values="0 0 0 0 0 0 0 0 0 0 0 0 0 0 0 0 0 0 127 0" result="hardAlpha"/>
<feOffset dy="-8"/>
<feGaussianBlur stdDeviation="3.55"/>
<feComposite in2="hardAlpha" operator="arithmetic" k2="-1" k3="1"/>
<feColorMatrix type="matrix" values="0 0 0 0 0.796078 0 0 0 0 0.576471 0 0 0 0 0.0980392 0 0 0 0.8 0"/>
<feBlend mode="normal" in2="effect1_innerShadow_3324_1523" result="effect2_innerShadow_3324_1523"/>
<feTurbulence type="fractalNoise" baseFrequency="0.99900001287460327 0.99900001287460327" numOctaves="3" seed="8703" />
<feDisplacementMap in="effect2_innerShadow_3324_1523" scale="8" xChannelSelector="R" yChannelSelector="G" result="displacedImage" width="100%" height="100%" />
<feMerge result="effect3_texture_3324_1523">
<feMergeNode in="displacedImage"/>
</feMerge>
</filter>
<filter id="filter6_f_3324_1523" x="390.218" y="433.891" width="25.0343" height="28.893" filterUnits="userSpaceOnUse" color-interpolation-filters="sRGB">
<feFlood flood-opacity="0" result="BackgroundImageFix"/>
<feBlend mode="normal" in="SourceGraphic" in2="BackgroundImageFix" result="shape"/>
<feGaussianBlur stdDeviation="0.65" result="effect1_foregroundBlur_3324_1523"/>
</filter>
<filter id="filter7_f_3324_1523" x="390.3" y="434.3" width="22.4" height="23.4" filterUnits="userSpaceOnUse" color-interpolation-filters="sRGB">
<feFlood flood-opacity="0" result="BackgroundImageFix"/>
<feBlend mode="normal" in="SourceGraphic" in2="BackgroundImageFix" result="shape"/>
<feGaussianBlur stdDeviation="0.35" result="effect1_foregroundBlur_3324_1523"/>
</filter>
<filter id="filter8_f_3324_1523" x="570.859" y="435.358" width="27.0395" height="29.1125" filterUnits="userSpaceOnUse" color-interpolation-filters="sRGB">
<feFlood flood-opacity="0" result="BackgroundImageFix"/>
<feBlend mode="normal" in="SourceGraphic" in2="BackgroundImageFix" result="shape"/>
<feGaussianBlur stdDeviation="0.95" result="effect1_foregroundBlur_3324_1523"/>
</filter>
<filter id="filter9_f_3324_1523" x="571.3" y="436.3" width="19.4" height="20.4" filterUnits="userSpaceOnUse" color-interpolation-filters="sRGB">
<feFlood flood-opacity="0" result="BackgroundImageFix"/>
<feBlend mode="normal" in="SourceGraphic" in2="BackgroundImageFix" result="shape"/>
<feGaussianBlur stdDeviation="0.35" result="effect1_foregroundBlur_3324_1523"/>
</filter>
<filter id="filter10_f_3324_1523" x="574.668" y="440.492" width="10.9676" height="13.0934" filterUnits="userSpaceOnUse" color-interpolation-filters="sRGB">
<feFlood flood-opacity="0" result="BackgroundImageFix"/>
<feBlend mode="normal" in="SourceGraphic" in2="BackgroundImageFix" result="shape"/>
<feGaussianBlur stdDeviation="0.35" result="effect1_foregroundBlur_3324_1523"/>
</filter>
<filter id="filter11_f_3324_1523" x="366.181" y="492.2" width="15.6325" height="13.602" filterUnits="userSpaceOnUse" color-interpolation-filters="sRGB">
<feFlood flood-opacity="0" result="BackgroundImageFix"/>
<feBlend mode="normal" in="SourceGraphic" in2="BackgroundImageFix" result="shape"/>
<feGaussianBlur stdDeviation="0.9" result="effect1_foregroundBlur_3324_1523"/>
</filter>
<filter id="filter12_f_3324_1523" x="618.2" y="495.2" width="15.6325" height="13.602" filterUnits="userSpaceOnUse" color-interpolation-filters="sRGB">
<feFlood flood-opacity="0" result="BackgroundImageFix"/>
<feBlend mode="normal" in="SourceGraphic" in2="BackgroundImageFix" result="shape"/>
<feGaussianBlur stdDeviation="0.9" result="effect1_foregroundBlur_3324_1523"/>
</filter>
</defs>
</svg>
