<svg width="1000" height="1000" viewBox="0 0 1000 1000" fill="none" xmlns="http://www.w3.org/2000/svg">
<g filter="url(#filter0_iig_3326_3010)">
<path d="M270.545 382.714C175.866 479.647 86.1373 654.573 127.912 829.517C145.269 881.371 165.199 911.976 222.932 941.975C253.334 957.772 327.497 950.5 375.541 921.664L445.391 890.456C490.739 873.851 509.569 876.412 538.497 889.192C577.026 910.413 587.497 931.5 649.204 964.222C729.484 1006.79 793.124 956.041 817.511 889.192C874.805 742.915 814.511 422.978 650.328 310.479C516.051 226.594 403.001 247.226 270.545 382.714Z" fill="#F7D145"/>
</g>
<g filter="url(#filter1_iig_3326_3010)">
<circle cx="492.996" cy="145" r="110" fill="#F7D145"/>
</g>
<g opacity="0.4" filter="url(#filter2_f_3326_3010)">
<path d="M450.372 270.172C464.038 264.005 502.072 255.372 544.872 270.172C598.372 288.672 415.872 288.172 450.372 270.172Z" fill="#B23C05"/>
</g>
<g opacity="0.4" filter="url(#filter3_f_3326_3010)">
<path d="M533.495 245.499C524.951 248.602 489.939 257.335 463.181 249.888C429.735 240.578 555.064 236.442 533.495 245.499Z" fill="#B23C05"/>
</g>
<g filter="url(#filter4_iig_3326_3010)">
<path d="M257.699 773.068C271.728 736.698 272.986 728.506 287.229 709.133C299.637 692.255 259.841 627.746 226.231 577.586C219.861 568.08 205.392 568.903 199.905 578.945C176.511 621.76 137.043 694.31 143.076 742.936C156.217 848.842 228.428 842.851 257.699 773.068Z" fill="#F7D145"/>
</g>
<g filter="url(#filter5_iig_3326_3010)">
<path d="M680.848 773.156C666.819 736.786 665.561 728.594 651.318 709.221C638.909 692.343 678.705 627.834 712.316 577.674C718.686 568.167 733.155 568.991 738.642 579.033C762.036 621.848 801.504 694.398 795.471 743.024C782.33 848.93 710.118 842.939 680.848 773.156Z" fill="#F7D145"/>
</g>
<path d="M435.945 461.78C435.95 465.065 432.45 467.564 429.034 466.431C426.95 465.064 426.5 462.935 424.989 460.722C418.079 450.594 409.39 449.424 398.323 453.628C392.683 457.592 392.521 458.972 388.838 464.9C379.031 471.83 374.986 451.985 396.265 443.479C404.335 440.327 413.326 440.509 421.263 443.978C428.823 447.378 434.402 453.5 435.945 461.78Z" fill="#1C170B"/>
<path d="M618.676 468.507C618.68 471.792 615.18 474.291 611.764 473.157C609.68 471.791 609.23 469.661 607.72 467.449C600.809 457.321 592.12 456.15 581.054 460.355C575.413 464.318 575.251 465.698 571.568 471.627C561.762 478.556 557.717 458.712 578.996 450.206C587.066 447.053 596.056 447.236 603.994 450.705C611.553 454.104 617.133 460.226 618.676 468.507Z" fill="#1C170B"/>
<path d="M353.998 488.785C366.288 488.07 381.73 490.477 384.997 505.019C386.022 509.579 385.139 514.363 382.552 518.257C378.405 524.432 372.213 526.795 365.333 528.245C353.919 529.158 338.869 527.064 334.77 514.24C333.371 509.718 333.883 504.821 336.188 500.686C339.884 493.968 346.958 490.735 353.998 488.785Z" fill="#F9A6A0"/>
<g filter="url(#filter6_f_3326_3010)">
<path d="M367.996 494C373.239 494.048 380.359 498.673 379.996 504C375.828 504.091 367.522 498.087 367.996 494Z" fill="#FDC3BF"/>
</g>
<path d="M626.144 494.285C641.875 485.407 671.146 495.187 664.859 516.522C657.949 539.968 605.952 533.98 615.074 505.471C615.729 503.36 618.569 499.408 620.25 497.867C621.586 496.68 624.464 495.224 626.144 494.285Z" fill="#EF928B"/>
<g filter="url(#filter7_f_3326_3010)">
<path d="M632.012 497C626.769 497.048 619.649 501.673 620.012 507C624.18 507.091 632.486 501.087 632.012 497Z" fill="#FDC3BF"/>
</g>
<path d="M526.559 506.037C529.118 505.857 530.578 506.352 532.949 507.18C540.011 509.647 541.161 518.064 538.561 524.272C535.04 532.678 527.164 538.441 518.947 541.959C504.589 548.106 488.023 546.785 473.761 541.057C468.46 538.97 460.68 534.705 459.795 528.638C455.511 499.213 487.412 516.413 501.358 514.55C509.779 513.426 518.469 508.037 526.559 506.037Z" fill="black"/>
<path d="M514.571 529.318C521.129 529.165 521.058 531.475 521.47 537.347C509.407 544.777 496.626 543.843 483.423 541.736C481.545 541.195 480.599 541.096 479.149 539.784C473.781 523.686 495.949 536.217 500.65 535.608C504.12 535.159 510.898 531.045 514.571 529.318Z" fill="#E06B51"/>
<defs>
<filter id="filter0_iig_3326_3010" x="90.3828" y="238.634" width="765.266" height="762.131" filterUnits="userSpaceOnUse" color-interpolation-filters="sRGB">
<feFlood flood-opacity="0" result="BackgroundImageFix"/>
<feBlend mode="normal" in="SourceGraphic" in2="BackgroundImageFix" result="shape"/>
<feColorMatrix in="SourceAlpha" type="matrix" values="0 0 0 0 0 0 0 0 0 0 0 0 0 0 0 0 0 0 127 0" result="hardAlpha"/>
<feOffset dx="17" dy="28"/>
<feGaussianBlur stdDeviation="10.45"/>
<feComposite in2="hardAlpha" operator="arithmetic" k2="-1" k3="1"/>
<feColorMatrix type="matrix" values="0 0 0 0 0.962384 0 0 0 0 0.860378 0 0 0 0 0.484572 0 0 0 1 0"/>
<feBlend mode="normal" in2="shape" result="effect1_innerShadow_3326_3010"/>
<feColorMatrix in="SourceAlpha" type="matrix" values="0 0 0 0 0 0 0 0 0 0 0 0 0 0 0 0 0 0 127 0" result="hardAlpha"/>
<feOffset dx="-27" dy="-22"/>
<feGaussianBlur stdDeviation="29.75"/>
<feComposite in2="hardAlpha" operator="arithmetic" k2="-1" k3="1"/>
<feColorMatrix type="matrix" values="0 0 0 0 0.797063 0 0 0 0 0.575703 0 0 0 0 0.0980312 0 0 0 1 0"/>
<feBlend mode="normal" in2="effect1_innerShadow_3326_3010" result="effect2_innerShadow_3326_3010"/>
<feTurbulence type="fractalNoise" baseFrequency="0.99900001287460327 0.99900001287460327" numOctaves="3" seed="8703" />
<feDisplacementMap in="effect2_innerShadow_3326_3010" scale="8" xChannelSelector="R" yChannelSelector="G" result="displacedImage" width="100%" height="100%" />
<feMerge result="effect3_texture_3326_3010">
<feMergeNode in="displacedImage"/>
</feMerge>
</filter>
<filter id="filter1_iig_3326_3010" x="378.996" y="22" width="233" height="237" filterUnits="userSpaceOnUse" color-interpolation-filters="sRGB">
<feFlood flood-opacity="0" result="BackgroundImageFix"/>
<feBlend mode="normal" in="SourceGraphic" in2="BackgroundImageFix" result="shape"/>
<feColorMatrix in="SourceAlpha" type="matrix" values="0 0 0 0 0 0 0 0 0 0 0 0 0 0 0 0 0 0 127 0" result="hardAlpha"/>
<feOffset dx="9" dy="2"/>
<feGaussianBlur stdDeviation="5.65"/>
<feComposite in2="hardAlpha" operator="arithmetic" k2="-1" k3="1"/>
<feColorMatrix type="matrix" values="0 0 0 0 1 0 0 0 0 1 0 0 0 0 1 0 0 0 1 0"/>
<feBlend mode="normal" in2="shape" result="effect1_innerShadow_3326_3010"/>
<feColorMatrix in="SourceAlpha" type="matrix" values="0 0 0 0 0 0 0 0 0 0 0 0 0 0 0 0 0 0 127 0" result="hardAlpha"/>
<feOffset dx="-2" dy="-13"/>
<feGaussianBlur stdDeviation="19.7"/>
<feComposite in2="hardAlpha" operator="arithmetic" k2="-1" k3="1"/>
<feColorMatrix type="matrix" values="0 0 0 0 0.797063 0 0 0 0 0.575703 0 0 0 0 0.0980312 0 0 0 1 0"/>
<feBlend mode="normal" in2="effect1_innerShadow_3326_3010" result="effect2_innerShadow_3326_3010"/>
<feTurbulence type="fractalNoise" baseFrequency="0.99900001287460327 0.99900001287460327" numOctaves="3" seed="8703" />
<feDisplacementMap in="effect2_innerShadow_3326_3010" scale="8" xChannelSelector="R" yChannelSelector="G" result="displacedImage" width="100%" height="100%" />
<feMerge result="effect3_texture_3326_3010">
<feMergeNode in="displacedImage"/>
</feMerge>
</filter>
<filter id="filter2_f_3326_3010" x="423.496" y="239.5" width="153.77" height="66.8594" filterUnits="userSpaceOnUse" color-interpolation-filters="sRGB">
<feFlood flood-opacity="0" result="BackgroundImageFix"/>
<feBlend mode="normal" in="SourceGraphic" in2="BackgroundImageFix" result="shape"/>
<feGaussianBlur stdDeviation="11.25" result="effect1_foregroundBlur_3326_3010"/>
</filter>
<filter id="filter3_f_3326_3010" x="434.969" y="217.946" width="123.539" height="57.3711" filterUnits="userSpaceOnUse" color-interpolation-filters="sRGB">
<feFlood flood-opacity="0" result="BackgroundImageFix"/>
<feBlend mode="normal" in="SourceGraphic" in2="BackgroundImageFix" result="shape"/>
<feGaussianBlur stdDeviation="11.25" result="effect1_foregroundBlur_3326_3010"/>
</filter>
<filter id="filter4_iig_3326_3010" x="138.457" y="555.812" width="155.094" height="272.386" filterUnits="userSpaceOnUse" color-interpolation-filters="sRGB">
<feFlood flood-opacity="0" result="BackgroundImageFix"/>
<feBlend mode="normal" in="SourceGraphic" in2="BackgroundImageFix" result="shape"/>
<feColorMatrix in="SourceAlpha" type="matrix" values="0 0 0 0 0 0 0 0 0 0 0 0 0 0 0 0 0 0 127 0" result="hardAlpha"/>
<feOffset dx="1" dy="-20"/>
<feGaussianBlur stdDeviation="7.55"/>
<feComposite in2="hardAlpha" operator="arithmetic" k2="-1" k3="1"/>
<feColorMatrix type="matrix" values="0 0 0 0 0.973501 0 0 0 0 0.909066 0 0 0 0 0.671677 0 0 0 1 0"/>
<feBlend mode="normal" in2="shape" result="effect1_innerShadow_3326_3010"/>
<feColorMatrix in="SourceAlpha" type="matrix" values="0 0 0 0 0 0 0 0 0 0 0 0 0 0 0 0 0 0 127 0" result="hardAlpha"/>
<feOffset dx="3" dy="-8"/>
<feGaussianBlur stdDeviation="3.55"/>
<feComposite in2="hardAlpha" operator="arithmetic" k2="-1" k3="1"/>
<feColorMatrix type="matrix" values="0 0 0 0 0.796078 0 0 0 0 0.576471 0 0 0 0 0.0980392 0 0 0 0.8 0"/>
<feBlend mode="normal" in2="effect1_innerShadow_3326_3010" result="effect2_innerShadow_3326_3010"/>
<feTurbulence type="fractalNoise" baseFrequency="0.99900001287460327 0.99900001287460327" numOctaves="3" seed="8703" />
<feDisplacementMap in="effect2_innerShadow_3326_3010" scale="8" xChannelSelector="R" yChannelSelector="G" result="displacedImage" width="100%" height="100%" />
<feMerge result="effect3_texture_3326_3010">
<feMergeNode in="displacedImage"/>
</feMerge>
</filter>
<filter id="filter5_iig_3326_3010" x="644.996" y="555.9" width="155.094" height="272.386" filterUnits="userSpaceOnUse" color-interpolation-filters="sRGB">
<feFlood flood-opacity="0" result="BackgroundImageFix"/>
<feBlend mode="normal" in="SourceGraphic" in2="BackgroundImageFix" result="shape"/>
<feColorMatrix in="SourceAlpha" type="matrix" values="0 0 0 0 0 0 0 0 0 0 0 0 0 0 0 0 0 0 127 0" result="hardAlpha"/>
<feOffset dx="1" dy="-20"/>
<feGaussianBlur stdDeviation="7.55"/>
<feComposite in2="hardAlpha" operator="arithmetic" k2="-1" k3="1"/>
<feColorMatrix type="matrix" values="0 0 0 0 0.973501 0 0 0 0 0.909066 0 0 0 0 0.671677 0 0 0 1 0"/>
<feBlend mode="normal" in2="shape" result="effect1_innerShadow_3326_3010"/>
<feColorMatrix in="SourceAlpha" type="matrix" values="0 0 0 0 0 0 0 0 0 0 0 0 0 0 0 0 0 0 127 0" result="hardAlpha"/>
<feOffset dy="-8"/>
<feGaussianBlur stdDeviation="3.55"/>
<feComposite in2="hardAlpha" operator="arithmetic" k2="-1" k3="1"/>
<feColorMatrix type="matrix" values="0 0 0 0 0.796078 0 0 0 0 0.576471 0 0 0 0 0.0980392 0 0 0 0.8 0"/>
<feBlend mode="normal" in2="effect1_innerShadow_3326_3010" result="effect2_innerShadow_3326_3010"/>
<feTurbulence type="fractalNoise" baseFrequency="0.99900001287460327 0.99900001287460327" numOctaves="3" seed="8703" />
<feDisplacementMap in="effect2_innerShadow_3326_3010" scale="8" xChannelSelector="R" yChannelSelector="G" result="displacedImage" width="100%" height="100%" />
<feMerge result="effect3_texture_3326_3010">
<feMergeNode in="displacedImage"/>
</feMerge>
</filter>
<filter id="filter6_f_3326_3010" x="366.177" y="492.2" width="15.6312" height="13.601" filterUnits="userSpaceOnUse" color-interpolation-filters="sRGB">
<feFlood flood-opacity="0" result="BackgroundImageFix"/>
<feBlend mode="normal" in="SourceGraphic" in2="BackgroundImageFix" result="shape"/>
<feGaussianBlur stdDeviation="0.9" result="effect1_foregroundBlur_3326_3010"/>
</filter>
<filter id="filter7_f_3326_3010" x="618.2" y="495.2" width="15.6312" height="13.601" filterUnits="userSpaceOnUse" color-interpolation-filters="sRGB">
<feFlood flood-opacity="0" result="BackgroundImageFix"/>
<feBlend mode="normal" in="SourceGraphic" in2="BackgroundImageFix" result="shape"/>
<feGaussianBlur stdDeviation="0.9" result="effect1_foregroundBlur_3326_3010"/>
</filter>
</defs>
</svg>
