<svg width="1000" height="1000" viewBox="0 0 1000 1000" fill="none" xmlns="http://www.w3.org/2000/svg">
<rect width="1000" height="1000" fill="white"/>
<g filter="url(#filter0_iig_3263_1504)">
<path d="M270.548 382.714C175.869 479.647 86.1402 654.573 127.915 829.517C145.272 881.371 165.202 911.976 222.935 941.975C253.337 957.772 327.5 950.5 375.544 921.664L445.394 890.456C490.742 873.851 509.572 876.412 538.5 889.192C577.029 910.413 587.5 931.5 649.207 964.222C729.487 1006.79 793.127 956.041 817.514 889.192C874.808 742.915 814.514 422.978 650.331 310.479C516.054 226.594 403.003 247.226 270.548 382.714Z" fill="#F7D145"/>
</g>
<g filter="url(#filter1_iig_3263_1504)">
<circle cx="493" cy="145" r="110" fill="#F7D145"/>
</g>
<g opacity="0.4" filter="url(#filter2_f_3263_1504)">
<path d="M450.376 270.172C464.042 264.005 502.076 255.372 544.876 270.172C598.376 288.672 415.876 288.172 450.376 270.172Z" fill="#B23C05"/>
</g>
<g opacity="0.4" filter="url(#filter3_f_3263_1504)">
<path d="M533.5 245.499C524.956 248.602 489.943 257.335 463.186 249.888C429.739 240.578 555.068 236.442 533.5 245.499Z" fill="#B23C05"/>
</g>
<g filter="url(#filter4_iig_3263_1504)">
<path d="M821.855 513.95C798.846 545.418 795.5 553 776.706 568C760.334 581.067 781.974 653.709 801.375 710.888C805.052 721.724 819.237 724.693 827.147 716.425C860.877 681.172 917.862 621.391 924.689 572.869C939.558 467.192 868.275 454.188 821.855 513.95Z" fill="#F7D145"/>
</g>
<g filter="url(#filter5_iig_3263_1504)">
<path d="M257.7 773.068C271.728 736.698 272.987 728.506 287.23 709.133C299.638 692.255 259.842 627.746 226.232 577.586C219.862 568.08 205.393 568.903 199.906 578.945C176.511 621.76 137.044 694.31 143.077 742.936C156.218 848.842 228.429 842.851 257.7 773.068Z" fill="#F7D145"/>
</g>
<path d="M411.48 428C419.679 428 423 432 424.408 434.321C431.456 442.807 434.448 450.812 435.286 461.939C436.531 478.451 428.581 501.025 409.176 501.922C402.907 502.212 396.783 499.978 392.177 495.714C372.967 478.168 379.456 428.811 411.48 428Z" fill="#1C170B"/>
<g filter="url(#filter6_f_3263_1504)">
<path d="M402.589 435.31C405.113 435.115 406.119 435.015 408.226 436.218C409.449 437.699 409.295 438.305 409.367 440.116C410.18 440.625 410.898 441.111 411.694 441.647L411.904 442.956C419.014 456.194 406.034 468.295 397.004 457.028C387.109 457.791 393.027 445.603 396.045 441.344C398.038 438.531 399.869 437.302 402.589 435.31Z" fill="#FAF3EC"/>
</g>
<g filter="url(#filter7_f_3263_1504)">
<path d="M402.405 435.12C405.005 434.923 406.041 434.822 408.211 436.033C409.471 437.522 409.312 438.132 409.386 439.954C410.224 440.465 410.964 440.954 411.784 441.493L412 442.811C408.557 441.118 406.625 439.187 402.54 440.654C395.773 443.086 394.268 451.112 396.652 456.966C386.459 457.733 392.555 445.473 395.664 441.189C397.717 438.36 399.602 437.123 402.405 435.12Z" fill="#3A372F"/>
</g>
<path d="M589.37 428.706C621.867 428.523 630.994 493.598 594.352 502.663C555.686 504.419 554.456 433.119 589.37 428.706Z" fill="#1C170B"/>
<g filter="url(#filter8_f_3263_1504)">
<path d="M576.491 452.759C577.097 454.049 577.14 454.759 576.609 455.979C569.334 454.164 573.452 439.586 580.007 437.664C584.2 436.436 587.824 438.013 589.306 442.115C592.619 444.137 594.847 446.01 595.749 450.049C596.355 452.791 595.845 455.661 594.331 458.027C589.038 466.354 580.303 462.46 578.515 452.619C577.656 451.775 577.93 451.624 577.758 450.079L577.591 450.499L577.887 450.8L577.387 452.615L576.491 452.759Z" fill="#FAF3EC"/>
</g>
<g filter="url(#filter9_f_3263_1504)">
<path d="M576.06 452.732C576.72 454.041 576.766 454.762 576.188 456C568.275 454.158 572.754 439.363 579.885 437.413C584.446 436.166 588.388 437.766 590 441.93L585.246 442.04C580.159 445.421 579.418 446.592 578.261 452.59C577.327 451.734 577.625 451.58 577.438 450.013L577.257 450.438L577.578 450.743L577.035 452.586L576.06 452.732Z" fill="#312E24"/>
</g>
<g filter="url(#filter10_f_3263_1504)">
<path d="M576.49 452.759L575.948 452.886L575.475 452.235C575.11 444.84 575.121 438.674 584.935 442.224C580.259 445.556 579.577 446.709 578.514 452.619C577.655 451.776 577.929 451.624 577.757 450.08L577.591 450.499L577.886 450.8L577.387 452.615L576.49 452.759Z" fill="#534639"/>
</g>
<path d="M354.002 488.785C366.292 488.07 381.734 490.477 385.001 505.019C386.026 509.579 385.143 514.363 382.556 518.257C378.409 524.432 372.217 526.795 365.337 528.245C353.923 529.158 338.873 527.064 334.774 514.24C333.375 509.718 333.887 504.821 336.192 500.686C339.888 493.968 346.962 490.735 354.002 488.785Z" fill="#F9A6A0"/>
<g filter="url(#filter11_f_3263_1504)">
<path d="M368 494C373.244 494.048 380.363 498.673 380 504C375.832 504.091 367.526 498.087 368 494Z" fill="#FDC3BF"/>
</g>
<path d="M626.146 494.285C641.877 485.407 671.147 495.187 664.86 516.522C657.951 539.968 605.954 533.98 615.075 505.471C615.73 503.36 618.571 499.408 620.251 497.867C621.588 496.68 624.466 495.224 626.146 494.285Z" fill="#EF928B"/>
<g filter="url(#filter12_f_3263_1504)">
<path d="M632.013 497C626.77 497.048 619.65 501.673 620.013 507C624.181 507.091 632.487 501.087 632.013 497Z" fill="#FDC3BF"/>
</g>
<path d="M471.504 494.784C471.5 491.499 475 489 478.416 490.134C480.5 491.5 480.95 493.63 482.461 495.842C489.371 505.97 498.06 507.141 509.126 502.936C514.767 498.973 514.929 497.593 518.612 491.664C528.419 484.735 532.464 504.579 511.184 513.085C503.114 516.238 494.124 516.055 486.187 512.586C478.627 509.187 473.047 503.065 471.504 494.784Z" fill="#1C170B"/>
<path d="M509.127 502.936C514.767 498.973 514.929 497.593 518.612 491.664L520.234 492.572C521.198 496.986 512.309 506.706 507.958 505.884L507.711 505.234L509.127 502.936Z" fill="#312E24"/>
<defs>
<filter id="filter0_iig_3263_1504" x="90.3857" y="238.634" width="765.268" height="762.131" filterUnits="userSpaceOnUse" color-interpolation-filters="sRGB">
<feFlood flood-opacity="0" result="BackgroundImageFix"/>
<feBlend mode="normal" in="SourceGraphic" in2="BackgroundImageFix" result="shape"/>
<feColorMatrix in="SourceAlpha" type="matrix" values="0 0 0 0 0 0 0 0 0 0 0 0 0 0 0 0 0 0 127 0" result="hardAlpha"/>
<feOffset dx="17" dy="28"/>
<feGaussianBlur stdDeviation="10.45"/>
<feComposite in2="hardAlpha" operator="arithmetic" k2="-1" k3="1"/>
<feColorMatrix type="matrix" values="0 0 0 0 0.962384 0 0 0 0 0.860378 0 0 0 0 0.484572 0 0 0 1 0"/>
<feBlend mode="normal" in2="shape" result="effect1_innerShadow_3263_1504"/>
<feColorMatrix in="SourceAlpha" type="matrix" values="0 0 0 0 0 0 0 0 0 0 0 0 0 0 0 0 0 0 127 0" result="hardAlpha"/>
<feOffset dx="-27" dy="-22"/>
<feGaussianBlur stdDeviation="29.75"/>
<feComposite in2="hardAlpha" operator="arithmetic" k2="-1" k3="1"/>
<feColorMatrix type="matrix" values="0 0 0 0 0.797063 0 0 0 0 0.575703 0 0 0 0 0.0980312 0 0 0 1 0"/>
<feBlend mode="normal" in2="effect1_innerShadow_3263_1504" result="effect2_innerShadow_3263_1504"/>
<feTurbulence type="fractalNoise" baseFrequency="0.99900001287460327 0.99900001287460327" numOctaves="3" seed="8703" />
<feDisplacementMap in="effect2_innerShadow_3263_1504" scale="8" xChannelSelector="R" yChannelSelector="G" result="displacedImage" width="100%" height="100%" />
<feMerge result="effect3_texture_3263_1504">
<feMergeNode in="displacedImage"/>
</feMerge>
</filter>
<filter id="filter1_iig_3263_1504" x="379" y="22" width="233" height="237" filterUnits="userSpaceOnUse" color-interpolation-filters="sRGB">
<feFlood flood-opacity="0" result="BackgroundImageFix"/>
<feBlend mode="normal" in="SourceGraphic" in2="BackgroundImageFix" result="shape"/>
<feColorMatrix in="SourceAlpha" type="matrix" values="0 0 0 0 0 0 0 0 0 0 0 0 0 0 0 0 0 0 127 0" result="hardAlpha"/>
<feOffset dx="9" dy="2"/>
<feGaussianBlur stdDeviation="5.65"/>
<feComposite in2="hardAlpha" operator="arithmetic" k2="-1" k3="1"/>
<feColorMatrix type="matrix" values="0 0 0 0 1 0 0 0 0 1 0 0 0 0 1 0 0 0 1 0"/>
<feBlend mode="normal" in2="shape" result="effect1_innerShadow_3263_1504"/>
<feColorMatrix in="SourceAlpha" type="matrix" values="0 0 0 0 0 0 0 0 0 0 0 0 0 0 0 0 0 0 127 0" result="hardAlpha"/>
<feOffset dx="-2" dy="-13"/>
<feGaussianBlur stdDeviation="19.7"/>
<feComposite in2="hardAlpha" operator="arithmetic" k2="-1" k3="1"/>
<feColorMatrix type="matrix" values="0 0 0 0 0.797063 0 0 0 0 0.575703 0 0 0 0 0.0980312 0 0 0 1 0"/>
<feBlend mode="normal" in2="effect1_innerShadow_3263_1504" result="effect2_innerShadow_3263_1504"/>
<feTurbulence type="fractalNoise" baseFrequency="0.99900001287460327 0.99900001287460327" numOctaves="3" seed="8703" />
<feDisplacementMap in="effect2_innerShadow_3263_1504" scale="8" xChannelSelector="R" yChannelSelector="G" result="displacedImage" width="100%" height="100%" />
<feMerge result="effect3_texture_3263_1504">
<feMergeNode in="displacedImage"/>
</feMerge>
</filter>
<filter id="filter2_f_3263_1504" x="423.5" y="239.5" width="153.771" height="66.8604" filterUnits="userSpaceOnUse" color-interpolation-filters="sRGB">
<feFlood flood-opacity="0" result="BackgroundImageFix"/>
<feBlend mode="normal" in="SourceGraphic" in2="BackgroundImageFix" result="shape"/>
<feGaussianBlur stdDeviation="11.25" result="effect1_foregroundBlur_3263_1504"/>
</filter>
<filter id="filter3_f_3263_1504" x="434.976" y="217.946" width="123.537" height="57.3711" filterUnits="userSpaceOnUse" color-interpolation-filters="sRGB">
<feFlood flood-opacity="0" result="BackgroundImageFix"/>
<feBlend mode="normal" in="SourceGraphic" in2="BackgroundImageFix" result="shape"/>
<feGaussianBlur stdDeviation="11.25" result="effect1_foregroundBlur_3263_1504"/>
</filter>
<filter id="filter4_iig_3263_1504" x="762.925" y="474.413" width="167.767" height="268.758" filterUnits="userSpaceOnUse" color-interpolation-filters="sRGB">
<feFlood flood-opacity="0" result="BackgroundImageFix"/>
<feBlend mode="normal" in="SourceGraphic" in2="BackgroundImageFix" result="shape"/>
<feColorMatrix in="SourceAlpha" type="matrix" values="0 0 0 0 0 0 0 0 0 0 0 0 0 0 0 0 0 0 127 0" result="hardAlpha"/>
<feOffset dx="1" dy="28"/>
<feGaussianBlur stdDeviation="11"/>
<feComposite in2="hardAlpha" operator="arithmetic" k2="-1" k3="1"/>
<feColorMatrix type="matrix" values="0 0 0 0 0.973501 0 0 0 0 0.909066 0 0 0 0 0.671677 0 0 0 1 0"/>
<feBlend mode="normal" in2="shape" result="effect1_innerShadow_3263_1504"/>
<feColorMatrix in="SourceAlpha" type="matrix" values="0 0 0 0 0 0 0 0 0 0 0 0 0 0 0 0 0 0 127 0" result="hardAlpha"/>
<feOffset dx="-8" dy="1"/>
<feGaussianBlur stdDeviation="4.25"/>
<feComposite in2="hardAlpha" operator="arithmetic" k2="-1" k3="1"/>
<feColorMatrix type="matrix" values="0 0 0 0 0.796078 0 0 0 0 0.576471 0 0 0 0 0.0980392 0 0 0 1 0"/>
<feBlend mode="normal" in2="effect1_innerShadow_3263_1504" result="effect2_innerShadow_3263_1504"/>
<feTurbulence type="fractalNoise" baseFrequency="0.99900001287460327 0.99900001287460327" numOctaves="3" seed="8703" />
<feDisplacementMap in="effect2_innerShadow_3263_1504" scale="8" xChannelSelector="R" yChannelSelector="G" result="displacedImage" width="100%" height="100%" />
<feMerge result="effect3_texture_3263_1504">
<feMergeNode in="displacedImage"/>
</feMerge>
</filter>
<filter id="filter5_iig_3263_1504" x="138.458" y="555.812" width="155.093" height="272.386" filterUnits="userSpaceOnUse" color-interpolation-filters="sRGB">
<feFlood flood-opacity="0" result="BackgroundImageFix"/>
<feBlend mode="normal" in="SourceGraphic" in2="BackgroundImageFix" result="shape"/>
<feColorMatrix in="SourceAlpha" type="matrix" values="0 0 0 0 0 0 0 0 0 0 0 0 0 0 0 0 0 0 127 0" result="hardAlpha"/>
<feOffset dx="1" dy="-20"/>
<feGaussianBlur stdDeviation="7.55"/>
<feComposite in2="hardAlpha" operator="arithmetic" k2="-1" k3="1"/>
<feColorMatrix type="matrix" values="0 0 0 0 0.973501 0 0 0 0 0.909066 0 0 0 0 0.671677 0 0 0 1 0"/>
<feBlend mode="normal" in2="shape" result="effect1_innerShadow_3263_1504"/>
<feColorMatrix in="SourceAlpha" type="matrix" values="0 0 0 0 0 0 0 0 0 0 0 0 0 0 0 0 0 0 127 0" result="hardAlpha"/>
<feOffset dx="3" dy="-8"/>
<feGaussianBlur stdDeviation="3.55"/>
<feComposite in2="hardAlpha" operator="arithmetic" k2="-1" k3="1"/>
<feColorMatrix type="matrix" values="0 0 0 0 0.796078 0 0 0 0 0.576471 0 0 0 0 0.0980392 0 0 0 0.8 0"/>
<feBlend mode="normal" in2="effect1_innerShadow_3263_1504" result="effect2_innerShadow_3263_1504"/>
<feTurbulence type="fractalNoise" baseFrequency="0.99900001287460327 0.99900001287460327" numOctaves="3" seed="8703" />
<feDisplacementMap in="effect2_innerShadow_3263_1504" scale="8" xChannelSelector="R" yChannelSelector="G" result="displacedImage" width="100%" height="100%" />
<feMerge result="effect3_texture_3263_1504">
<feMergeNode in="displacedImage"/>
</feMerge>
</filter>
<filter id="filter6_f_3263_1504" x="390.218" y="433.891" width="25.0341" height="28.893" filterUnits="userSpaceOnUse" color-interpolation-filters="sRGB">
<feFlood flood-opacity="0" result="BackgroundImageFix"/>
<feBlend mode="normal" in="SourceGraphic" in2="BackgroundImageFix" result="shape"/>
<feGaussianBlur stdDeviation="0.65" result="effect1_foregroundBlur_3263_1504"/>
</filter>
<filter id="filter7_f_3263_1504" x="390.3" y="434.3" width="22.4" height="23.4" filterUnits="userSpaceOnUse" color-interpolation-filters="sRGB">
<feFlood flood-opacity="0" result="BackgroundImageFix"/>
<feBlend mode="normal" in="SourceGraphic" in2="BackgroundImageFix" result="shape"/>
<feGaussianBlur stdDeviation="0.35" result="effect1_foregroundBlur_3263_1504"/>
</filter>
<filter id="filter8_f_3263_1504" x="570.859" y="435.358" width="27.0393" height="29.1125" filterUnits="userSpaceOnUse" color-interpolation-filters="sRGB">
<feFlood flood-opacity="0" result="BackgroundImageFix"/>
<feBlend mode="normal" in="SourceGraphic" in2="BackgroundImageFix" result="shape"/>
<feGaussianBlur stdDeviation="0.95" result="effect1_foregroundBlur_3263_1504"/>
</filter>
<filter id="filter9_f_3263_1504" x="571.3" y="436.3" width="19.4" height="20.4" filterUnits="userSpaceOnUse" color-interpolation-filters="sRGB">
<feFlood flood-opacity="0" result="BackgroundImageFix"/>
<feBlend mode="normal" in="SourceGraphic" in2="BackgroundImageFix" result="shape"/>
<feGaussianBlur stdDeviation="0.35" result="effect1_foregroundBlur_3263_1504"/>
</filter>
<filter id="filter10_f_3263_1504" x="574.668" y="440.492" width="10.9674" height="13.0943" filterUnits="userSpaceOnUse" color-interpolation-filters="sRGB">
<feFlood flood-opacity="0" result="BackgroundImageFix"/>
<feBlend mode="normal" in="SourceGraphic" in2="BackgroundImageFix" result="shape"/>
<feGaussianBlur stdDeviation="0.35" result="effect1_foregroundBlur_3263_1504"/>
</filter>
<filter id="filter11_f_3263_1504" x="366.181" y="492.2" width="15.6322" height="13.601" filterUnits="userSpaceOnUse" color-interpolation-filters="sRGB">
<feFlood flood-opacity="0" result="BackgroundImageFix"/>
<feBlend mode="normal" in="SourceGraphic" in2="BackgroundImageFix" result="shape"/>
<feGaussianBlur stdDeviation="0.9" result="effect1_foregroundBlur_3263_1504"/>
</filter>
<filter id="filter12_f_3263_1504" x="618.2" y="495.2" width="15.6322" height="13.601" filterUnits="userSpaceOnUse" color-interpolation-filters="sRGB">
<feFlood flood-opacity="0" result="BackgroundImageFix"/>
<feBlend mode="normal" in="SourceGraphic" in2="BackgroundImageFix" result="shape"/>
<feGaussianBlur stdDeviation="0.9" result="effect1_foregroundBlur_3263_1504"/>
</filter>
</defs>
</svg>
