<svg width="1000" height="1000" viewBox="0 0 1000 1000" fill="none" xmlns="http://www.w3.org/2000/svg">
<g filter="url(#filter0_iig_3326_2933)">
<path d="M270.549 382.714C175.87 479.647 86.1412 654.573 127.916 829.517C145.273 881.371 165.203 911.976 222.936 941.975C253.338 957.772 327.501 950.5 375.545 921.664L445.395 890.456C490.743 873.851 509.573 876.412 538.501 889.192C577.03 910.413 587.501 931.5 649.208 964.222C729.488 1006.79 793.127 956.041 817.515 889.192C874.809 742.915 814.515 422.978 650.332 310.479C516.055 226.594 403.004 247.226 270.549 382.714Z" fill="#F7D145"/>
</g>
<g filter="url(#filter1_iig_3326_2933)">
<circle cx="493" cy="145" r="110" fill="#F7D145"/>
</g>
<g opacity="0.4" filter="url(#filter2_f_3326_2933)">
<path d="M450.376 270.172C464.042 264.005 502.076 255.372 544.876 270.172C598.376 288.672 415.876 288.172 450.376 270.172Z" fill="#B23C05"/>
</g>
<g opacity="0.4" filter="url(#filter3_f_3326_2933)">
<path d="M533.499 245.499C524.955 248.602 489.943 257.335 463.185 249.888C429.739 240.578 555.068 236.442 533.499 245.499Z" fill="#B23C05"/>
</g>
<g filter="url(#filter4_iig_3326_2933)">
<path d="M257.703 773.068C271.731 736.698 272.99 728.506 287.233 709.133C299.641 692.255 259.845 627.746 226.234 577.586C219.865 568.08 205.396 568.903 199.909 578.945C176.514 621.76 137.047 694.31 143.08 742.936C156.221 848.842 228.432 842.851 257.703 773.068Z" fill="#F7D145"/>
</g>
<path d="M411.479 428C419.678 428 423 432 424.408 434.321C431.455 442.807 434.448 450.812 435.286 461.939C436.53 478.451 428.58 501.025 409.175 501.922C402.907 502.212 396.782 499.978 392.176 495.714C372.967 478.168 379.456 428.811 411.479 428Z" fill="#1C170B"/>
<g filter="url(#filter5_f_3326_2933)">
<path d="M402.588 435.31C405.111 435.115 406.117 435.015 408.224 436.218C409.447 437.699 409.293 438.305 409.365 440.116C410.178 440.625 410.896 441.111 411.693 441.647L411.902 442.956C419.012 456.194 406.032 468.295 397.002 457.028C387.107 457.791 393.025 445.603 396.043 441.344C398.036 438.531 399.867 437.302 402.588 435.31Z" fill="#FAF3EC"/>
</g>
<g filter="url(#filter6_f_3326_2933)">
<path d="M402.405 435.12C405.005 434.923 406.041 434.822 408.211 436.033C409.471 437.522 409.312 438.132 409.386 439.954C410.224 440.465 410.964 440.954 411.784 441.493L412 442.811C408.557 441.118 406.625 439.187 402.54 440.654C395.773 443.086 394.268 451.112 396.652 456.966C386.459 457.733 392.555 445.473 395.664 441.189C397.717 438.36 399.602 437.123 402.405 435.12Z" fill="#3A372F"/>
</g>
<path d="M620.887 447.7L570.836 463.683C568.007 464.586 568.069 468.61 570.924 469.425L620.887 483.7" stroke="black" stroke-width="7" stroke-linecap="round"/>
<path d="M354.002 488.785C366.292 488.07 381.734 490.477 385.001 505.019C386.026 509.579 385.143 514.363 382.556 518.257C378.409 524.432 372.217 526.795 365.337 528.245C353.923 529.158 338.873 527.064 334.774 514.24C333.375 509.718 333.887 504.821 336.192 500.686C339.888 493.968 346.962 490.735 354.002 488.785Z" fill="#F9A6A0"/>
<g filter="url(#filter7_f_3326_2933)">
<path d="M368 494C373.243 494.048 380.362 498.673 380 504C375.832 504.091 367.526 498.087 368 494Z" fill="#FDC3BF"/>
</g>
<path d="M626.148 494.285C641.879 485.407 671.15 495.187 664.863 516.522C657.953 539.968 605.956 533.98 615.078 505.471C615.733 503.36 618.573 499.408 620.253 497.867C621.59 496.68 624.468 495.224 626.148 494.285Z" fill="#EF928B"/>
<g filter="url(#filter8_f_3326_2933)">
<path d="M632.016 497C626.773 497.048 619.653 501.673 620.016 507C624.184 507.091 632.49 501.087 632.016 497Z" fill="#FDC3BF"/>
</g>
<path d="M529.372 496.072C531.605 520.248 511.988 530.895 498.11 530.326C478.46 529.52 465.731 508.164 469.081 496.075C472.43 488.009 486.945 493.048 495.877 494.06C499.571 494.06 503.226 493.368 506.814 492.493C514.924 490.516 527.623 488.965 529.372 496.072Z" fill="#03050D"/>
<path d="M518.002 516.476C508.038 503.918 489.302 508.496 481.546 516.842C479.83 518.689 480.226 521.523 482.178 523.117C492.266 531.35 506.183 531.37 517.046 523.176C519.173 521.572 519.658 518.563 518.002 516.476Z" fill="#E06B51"/>
<g filter="url(#filter9_iig_3326_2933)">
<path d="M680.852 773.156C666.823 736.786 665.565 728.594 651.322 709.221C638.913 692.343 678.709 627.834 712.32 577.674C718.69 568.167 733.159 568.991 738.646 579.033C762.04 621.848 801.508 694.398 795.474 743.024C782.334 848.93 710.122 842.939 680.852 773.156Z" fill="#F7D145"/>
</g>
<defs>
<filter id="filter0_iig_3326_2933" x="90.3867" y="238.634" width="765.27" height="762.131" filterUnits="userSpaceOnUse" color-interpolation-filters="sRGB">
<feFlood flood-opacity="0" result="BackgroundImageFix"/>
<feBlend mode="normal" in="SourceGraphic" in2="BackgroundImageFix" result="shape"/>
<feColorMatrix in="SourceAlpha" type="matrix" values="0 0 0 0 0 0 0 0 0 0 0 0 0 0 0 0 0 0 127 0" result="hardAlpha"/>
<feOffset dx="17" dy="28"/>
<feGaussianBlur stdDeviation="10.45"/>
<feComposite in2="hardAlpha" operator="arithmetic" k2="-1" k3="1"/>
<feColorMatrix type="matrix" values="0 0 0 0 0.962384 0 0 0 0 0.860378 0 0 0 0 0.484572 0 0 0 1 0"/>
<feBlend mode="normal" in2="shape" result="effect1_innerShadow_3326_2933"/>
<feColorMatrix in="SourceAlpha" type="matrix" values="0 0 0 0 0 0 0 0 0 0 0 0 0 0 0 0 0 0 127 0" result="hardAlpha"/>
<feOffset dx="-27" dy="-22"/>
<feGaussianBlur stdDeviation="29.75"/>
<feComposite in2="hardAlpha" operator="arithmetic" k2="-1" k3="1"/>
<feColorMatrix type="matrix" values="0 0 0 0 0.797063 0 0 0 0 0.575703 0 0 0 0 0.0980312 0 0 0 1 0"/>
<feBlend mode="normal" in2="effect1_innerShadow_3326_2933" result="effect2_innerShadow_3326_2933"/>
<feTurbulence type="fractalNoise" baseFrequency="0.99900001287460327 0.99900001287460327" numOctaves="3" seed="8703" />
<feDisplacementMap in="effect2_innerShadow_3326_2933" scale="8" xChannelSelector="R" yChannelSelector="G" result="displacedImage" width="100%" height="100%" />
<feMerge result="effect3_texture_3326_2933">
<feMergeNode in="displacedImage"/>
</feMerge>
</filter>
<filter id="filter1_iig_3326_2933" x="379" y="22" width="233" height="237" filterUnits="userSpaceOnUse" color-interpolation-filters="sRGB">
<feFlood flood-opacity="0" result="BackgroundImageFix"/>
<feBlend mode="normal" in="SourceGraphic" in2="BackgroundImageFix" result="shape"/>
<feColorMatrix in="SourceAlpha" type="matrix" values="0 0 0 0 0 0 0 0 0 0 0 0 0 0 0 0 0 0 127 0" result="hardAlpha"/>
<feOffset dx="9" dy="2"/>
<feGaussianBlur stdDeviation="5.65"/>
<feComposite in2="hardAlpha" operator="arithmetic" k2="-1" k3="1"/>
<feColorMatrix type="matrix" values="0 0 0 0 1 0 0 0 0 1 0 0 0 0 1 0 0 0 1 0"/>
<feBlend mode="normal" in2="shape" result="effect1_innerShadow_3326_2933"/>
<feColorMatrix in="SourceAlpha" type="matrix" values="0 0 0 0 0 0 0 0 0 0 0 0 0 0 0 0 0 0 127 0" result="hardAlpha"/>
<feOffset dx="-2" dy="-13"/>
<feGaussianBlur stdDeviation="19.7"/>
<feComposite in2="hardAlpha" operator="arithmetic" k2="-1" k3="1"/>
<feColorMatrix type="matrix" values="0 0 0 0 0.797063 0 0 0 0 0.575703 0 0 0 0 0.0980312 0 0 0 1 0"/>
<feBlend mode="normal" in2="effect1_innerShadow_3326_2933" result="effect2_innerShadow_3326_2933"/>
<feTurbulence type="fractalNoise" baseFrequency="0.99900001287460327 0.99900001287460327" numOctaves="3" seed="8703" />
<feDisplacementMap in="effect2_innerShadow_3326_2933" scale="8" xChannelSelector="R" yChannelSelector="G" result="displacedImage" width="100%" height="100%" />
<feMerge result="effect3_texture_3326_2933">
<feMergeNode in="displacedImage"/>
</feMerge>
</filter>
<filter id="filter2_f_3326_2933" x="423.5" y="239.5" width="153.773" height="66.8594" filterUnits="userSpaceOnUse" color-interpolation-filters="sRGB">
<feFlood flood-opacity="0" result="BackgroundImageFix"/>
<feBlend mode="normal" in="SourceGraphic" in2="BackgroundImageFix" result="shape"/>
<feGaussianBlur stdDeviation="11.25" result="effect1_foregroundBlur_3326_2933"/>
</filter>
<filter id="filter3_f_3326_2933" x="434.977" y="217.947" width="123.535" height="57.3701" filterUnits="userSpaceOnUse" color-interpolation-filters="sRGB">
<feFlood flood-opacity="0" result="BackgroundImageFix"/>
<feBlend mode="normal" in="SourceGraphic" in2="BackgroundImageFix" result="shape"/>
<feGaussianBlur stdDeviation="11.25" result="effect1_foregroundBlur_3326_2933"/>
</filter>
<filter id="filter4_iig_3326_2933" x="138.461" y="555.812" width="155.094" height="272.386" filterUnits="userSpaceOnUse" color-interpolation-filters="sRGB">
<feFlood flood-opacity="0" result="BackgroundImageFix"/>
<feBlend mode="normal" in="SourceGraphic" in2="BackgroundImageFix" result="shape"/>
<feColorMatrix in="SourceAlpha" type="matrix" values="0 0 0 0 0 0 0 0 0 0 0 0 0 0 0 0 0 0 127 0" result="hardAlpha"/>
<feOffset dx="1" dy="-20"/>
<feGaussianBlur stdDeviation="7.55"/>
<feComposite in2="hardAlpha" operator="arithmetic" k2="-1" k3="1"/>
<feColorMatrix type="matrix" values="0 0 0 0 0.973501 0 0 0 0 0.909066 0 0 0 0 0.671677 0 0 0 1 0"/>
<feBlend mode="normal" in2="shape" result="effect1_innerShadow_3326_2933"/>
<feColorMatrix in="SourceAlpha" type="matrix" values="0 0 0 0 0 0 0 0 0 0 0 0 0 0 0 0 0 0 127 0" result="hardAlpha"/>
<feOffset dx="3" dy="-8"/>
<feGaussianBlur stdDeviation="3.55"/>
<feComposite in2="hardAlpha" operator="arithmetic" k2="-1" k3="1"/>
<feColorMatrix type="matrix" values="0 0 0 0 0.796078 0 0 0 0 0.576471 0 0 0 0 0.0980392 0 0 0 0.8 0"/>
<feBlend mode="normal" in2="effect1_innerShadow_3326_2933" result="effect2_innerShadow_3326_2933"/>
<feTurbulence type="fractalNoise" baseFrequency="0.99900001287460327 0.99900001287460327" numOctaves="3" seed="8703" />
<feDisplacementMap in="effect2_innerShadow_3326_2933" scale="8" xChannelSelector="R" yChannelSelector="G" result="displacedImage" width="100%" height="100%" />
<feMerge result="effect3_texture_3326_2933">
<feMergeNode in="displacedImage"/>
</feMerge>
</filter>
<filter id="filter5_f_3326_2933" x="390.216" y="433.891" width="25.0336" height="28.893" filterUnits="userSpaceOnUse" color-interpolation-filters="sRGB">
<feFlood flood-opacity="0" result="BackgroundImageFix"/>
<feBlend mode="normal" in="SourceGraphic" in2="BackgroundImageFix" result="shape"/>
<feGaussianBlur stdDeviation="0.65" result="effect1_foregroundBlur_3326_2933"/>
</filter>
<filter id="filter6_f_3326_2933" x="390.3" y="434.3" width="22.4" height="23.4" filterUnits="userSpaceOnUse" color-interpolation-filters="sRGB">
<feFlood flood-opacity="0" result="BackgroundImageFix"/>
<feBlend mode="normal" in="SourceGraphic" in2="BackgroundImageFix" result="shape"/>
<feGaussianBlur stdDeviation="0.35" result="effect1_foregroundBlur_3326_2933"/>
</filter>
<filter id="filter7_f_3326_2933" x="366.18" y="492.2" width="15.6352" height="13.601" filterUnits="userSpaceOnUse" color-interpolation-filters="sRGB">
<feFlood flood-opacity="0" result="BackgroundImageFix"/>
<feBlend mode="normal" in="SourceGraphic" in2="BackgroundImageFix" result="shape"/>
<feGaussianBlur stdDeviation="0.9" result="effect1_foregroundBlur_3326_2933"/>
</filter>
<filter id="filter8_f_3326_2933" x="618.2" y="495.2" width="15.6352" height="13.601" filterUnits="userSpaceOnUse" color-interpolation-filters="sRGB">
<feFlood flood-opacity="0" result="BackgroundImageFix"/>
<feBlend mode="normal" in="SourceGraphic" in2="BackgroundImageFix" result="shape"/>
<feGaussianBlur stdDeviation="0.9" result="effect1_foregroundBlur_3326_2933"/>
</filter>
<filter id="filter9_iig_3326_2933" x="645" y="555.9" width="155.094" height="272.386" filterUnits="userSpaceOnUse" color-interpolation-filters="sRGB">
<feFlood flood-opacity="0" result="BackgroundImageFix"/>
<feBlend mode="normal" in="SourceGraphic" in2="BackgroundImageFix" result="shape"/>
<feColorMatrix in="SourceAlpha" type="matrix" values="0 0 0 0 0 0 0 0 0 0 0 0 0 0 0 0 0 0 127 0" result="hardAlpha"/>
<feOffset dx="1" dy="-20"/>
<feGaussianBlur stdDeviation="7.55"/>
<feComposite in2="hardAlpha" operator="arithmetic" k2="-1" k3="1"/>
<feColorMatrix type="matrix" values="0 0 0 0 0.973501 0 0 0 0 0.909066 0 0 0 0 0.671677 0 0 0 1 0"/>
<feBlend mode="normal" in2="shape" result="effect1_innerShadow_3326_2933"/>
<feColorMatrix in="SourceAlpha" type="matrix" values="0 0 0 0 0 0 0 0 0 0 0 0 0 0 0 0 0 0 127 0" result="hardAlpha"/>
<feOffset dy="-8"/>
<feGaussianBlur stdDeviation="3.55"/>
<feComposite in2="hardAlpha" operator="arithmetic" k2="-1" k3="1"/>
<feColorMatrix type="matrix" values="0 0 0 0 0.796078 0 0 0 0 0.576471 0 0 0 0 0.0980392 0 0 0 0.8 0"/>
<feBlend mode="normal" in2="effect1_innerShadow_3326_2933" result="effect2_innerShadow_3326_2933"/>
<feTurbulence type="fractalNoise" baseFrequency="0.99900001287460327 0.99900001287460327" numOctaves="3" seed="8703" />
<feDisplacementMap in="effect2_innerShadow_3326_2933" scale="8" xChannelSelector="R" yChannelSelector="G" result="displacedImage" width="100%" height="100%" />
<feMerge result="effect3_texture_3326_2933">
<feMergeNode in="displacedImage"/>
</feMerge>
</filter>
</defs>
</svg>
