<svg width="1024" height="1024" viewBox="0 0 1024 1024" fill="none" xmlns="http://www.w3.org/2000/svg">
<rect x="7.31428" y="7.31428" width="1009.37" height="1009.37" rx="226.743" fill="black"/>
<rect x="7.31428" y="7.31428" width="1009.37" height="1009.37" rx="226.743" stroke="url(#paint0_linear_549_1621)" stroke-width="14.6286"/>
<path d="M262.342 504.215L383.271 551.027L512.003 297.465L262.342 504.215Z" fill="#686868"/>
<path d="M761.658 504.215L636.828 551.027L511.997 297.465L761.658 504.215Z" fill="#CFCFCF"/>
<path d="M511.999 804.548H258.437L383.267 550.986L511.999 804.548Z" fill="#B8B8B8"/>
<path d="M765.562 804.548H512L636.83 550.986L765.562 804.548Z" fill="#D7D7D7"/>
<path d="M636.83 551.027H383.269L512 297.465L636.83 551.027Z" fill="#9E9E9E"/>
<path d="M597.829 219.465L512.008 297.484L426.187 219.465H597.829Z" fill="#838383"/>
<path d="M426.182 219.465L262.342 504.234L512.003 297.484L426.182 219.465Z" fill="#484848"/>
<path d="M597.818 219.465L761.658 504.234L511.997 297.484L597.818 219.465Z" fill="#ADADAD"/>
<path d="M262.328 504.188L172.606 660.226L258.427 804.561L383.258 550.999L262.328 504.188Z" fill="#898989"/>
<path d="M761.672 504.188L851.394 660.226L765.573 804.561L636.841 550.999L761.672 504.188Z" fill="#E6E6E6"/>
<path d="M636.83 550.986L512 804.548L383.269 550.986H636.83Z" fill="#C7C7C7"/>
<path d="M599.504 216.539L600.348 218.006L853.908 658.812L854.762 660.296L853.887 661.767L768.065 806.103L767.216 807.533H256.763L255.912 806.103L170.092 661.767L169.217 660.296L170.07 658.812L423.633 218.006L424.477 216.539H599.504Z" stroke="url(#paint1_linear_549_1621)" stroke-width="5.85143"/>
<defs>
<linearGradient id="paint0_linear_549_1621" x1="917.211" y1="1024" x2="96.5486" y2="42.4228" gradientUnits="userSpaceOnUse">
<stop stop-color="#323232"/>
<stop offset="1" stop-color="white"/>
</linearGradient>
<linearGradient id="paint1_linear_549_1621" x1="820.652" y1="722.688" x2="413.978" y2="269.202" gradientUnits="userSpaceOnUse">
<stop stop-color="#E6E6E6"/>
<stop offset="1" stop-color="#B8B8B8"/>
</linearGradient>
</defs>
</svg>
