<svg xmlns="http://www.w3.org/2000/svg" viewBox="0 0 32 32" width="32" height="32">
  <rect width="32" height="32" rx="4" fill="#fff"/>
  <g transform="translate(5 5)">
    <path fill="#E01E5A" d="M6 13a2 2 0 1 1-2-2h2v2zm1 0a2 2 0 1 1 4 0v5a2 2 0 1 1-4 0v-5z"/>
    <path fill="#36C5F0" d="M9 6a2 2 0 1 1 2-2v2H9zm0 1a2 2 0 1 1 0 4H4a2 2 0 1 1 0-4h5z"/>
    <path fill="#2EB67D" d="M16 9a2 2 0 1 1 2 2h-2V9zm-1 0a2 2 0 1 1-4 0V4a2 2 0 1 1 4 0v5z"/>
    <path fill="#ECB22E" d="M13 16a2 2 0 1 1-2 2v-2h2zm0-1a2 2 0 1 1 0-4h5a2 2 0 1 1 0 4h-5z"/>
  </g>
</svg>
